<?xml version="1.0" encoding="UTF-8" standalone="no"?>
<!DOCTYPE svg PUBLIC "-//W3C//DTD SVG 1.1//EN" "http://www.w3.org/Graphics/SVG/1.1/DTD/svg11.dtd">
<svg width="100%" height="100%" viewBox="0 0 32 32" version="1.1" xmlns="http://www.w3.org/2000/svg" xmlns:xlink="http://www.w3.org/1999/xlink" xml:space="preserve" xmlns:serif="http://www.serif.com/" style="fill-rule:evenodd;clip-rule:evenodd;stroke-linejoin:round;stroke-miterlimit:2;">
    <g id="blender">
        <g>
            <path d="M12.581,17.432C12.698,15.352 13.717,13.519 15.253,12.22C16.76,10.944 18.789,10.164 21.002,10.164C23.213,10.164 25.241,10.944 26.749,12.22C28.285,13.519 29.304,15.352 29.421,17.43C29.538,19.567 28.679,21.552 27.172,23.024C25.635,24.521 23.449,25.461 21.002,25.461C18.554,25.461 16.364,24.521 14.829,23.024C13.321,21.552 12.464,19.567 12.581,17.432Z" style="fill:#fff;fill-rule:nonzero;"/>
        </g>
        <g>
            <path d="M16.682,17.619C16.741,16.551 17.264,15.611 18.053,14.944C18.826,14.29 19.867,13.889 21.002,13.889C22.137,13.889 23.177,14.29 23.951,14.944C24.739,15.611 25.262,16.551 25.322,17.617C25.382,18.714 24.941,19.733 24.168,20.488C23.38,21.256 22.258,21.738 21.002,21.738C19.746,21.738 18.623,21.256 17.835,20.488C17.061,19.733 16.621,18.714 16.682,17.619Z" style="fill:#265787;fill-rule:nonzero;"/>
        </g>
        <g>
            <path d="M9.801,19.775C9.809,20.193 9.942,21.004 10.142,21.638C10.562,22.98 11.274,24.221 12.265,25.315C13.282,26.439 14.535,27.342 15.981,27.984C17.502,28.657 19.149,29 20.861,28.997C22.569,28.995 24.217,28.645 25.737,27.967C27.184,27.319 28.435,26.412 29.45,25.287C30.441,24.189 31.152,22.946 31.573,21.604C31.785,20.926 31.919,20.238 31.972,19.548C32.025,18.868 32.003,18.186 31.906,17.506C31.718,16.179 31.259,14.935 30.552,13.8C29.906,12.758 29.073,11.845 28.082,11.077L28.085,11.075L18.088,3.4C18.079,3.393 18.072,3.386 18.062,3.379C17.406,2.876 16.303,2.878 15.582,3.382C14.853,3.892 14.769,4.736 15.418,5.269L15.416,5.271L19.585,8.662L6.877,8.675L6.86,8.675C5.81,8.676 4.8,9.366 4.6,10.237C4.395,11.124 5.108,11.86 6.2,11.864L6.199,11.868L12.64,11.855L1.146,20.678C1.131,20.688 1.116,20.7 1.102,20.71C0.018,21.541 -0.333,22.921 0.35,23.795C1.043,24.683 2.517,24.685 3.612,23.8L9.885,18.666C9.885,18.666 9.794,19.359 9.801,19.775ZM25.921,22.096C24.628,23.413 22.819,24.16 20.861,24.164C18.9,24.167 17.09,23.427 15.798,22.112C15.166,21.472 14.702,20.735 14.416,19.95C14.136,19.178 14.027,18.359 14.099,17.533C14.167,16.725 14.408,15.955 14.791,15.258C15.168,14.572 15.688,13.953 16.329,13.429C17.585,12.406 19.185,11.851 20.858,11.849C22.532,11.847 24.131,12.396 25.388,13.416C26.028,13.938 26.547,14.555 26.924,15.239C27.31,15.935 27.548,16.703 27.619,17.513C27.691,18.338 27.582,19.156 27.301,19.928C27.014,20.715 26.552,21.453 25.921,22.096Z" style="fill:#ea7600;fill-rule:nonzero;"/>
        </g>
    </g>
</svg>
