<?xml version="1.0" encoding="UTF-8" standalone="no"?>
<!DOCTYPE svg PUBLIC "-//W3C//DTD SVG 1.1//EN" "http://www.w3.org/Graphics/SVG/1.1/DTD/svg11.dtd">
<svg width="100%" height="100%" viewBox="0 0 32 32" version="1.1" xmlns="http://www.w3.org/2000/svg" xmlns:xlink="http://www.w3.org/1999/xlink" xml:space="preserve" xmlns:serif="http://www.serif.com/" style="fill-rule:evenodd;clip-rule:evenodd;stroke-linejoin:round;stroke-miterlimit:2;">
    <g id="css">
        <path id="polygon2989" d="M30.108,-0L27.537,28.797L15.983,32L4.46,28.801L1.892,-0L30.108,-0Z" style="fill:#264de4;fill-rule:nonzero;"/>
        <path id="polygon2991" d="M25.337,26.963L27.533,2.355L16,2.355L16,29.551L25.337,26.963Z" style="fill:#2965f1;fill-rule:nonzero;"/>
        <path id="polygon2993" d="M7.779,13.037L8.095,16.569L16,16.569L16,13.037L7.779,13.037Z" style="fill:#ebebeb;fill-rule:nonzero;"/>
        <path id="polygon2995" d="M16,5.887L7.143,5.887L7.464,9.42L16,9.42L16,5.887Z" style="fill:#ebebeb;fill-rule:nonzero;"/>
        <path id="polygon2997" d="M16,25.886L16,22.211L15.985,22.215L12.051,21.153L11.799,18.335L8.253,18.335L8.748,23.882L15.984,25.89L16,25.886Z" style="fill:#ebebeb;fill-rule:nonzero;"/>
        <path id="polygon3005" d="M20.337,16.569L19.927,21.15L15.988,22.214L15.988,25.889L23.229,23.882L23.282,23.285L24.112,13.985L24.199,13.037L24.836,5.887L15.988,5.887L15.988,9.42L20.965,9.42L20.644,13.037L15.988,13.037L15.988,16.569L20.337,16.569Z" style="fill:#fff;fill-rule:nonzero;"/>
    </g>
</svg>
