<?xml version="1.0" encoding="UTF-8" standalone="no"?>
<!DOCTYPE svg PUBLIC "-//W3C//DTD SVG 1.1//EN" "http://www.w3.org/Graphics/SVG/1.1/DTD/svg11.dtd">
<svg width="100%" height="100%" viewBox="0 0 32 32" version="1.1" xmlns="http://www.w3.org/2000/svg" xmlns:xlink="http://www.w3.org/1999/xlink" xml:space="preserve" xmlns:serif="http://www.serif.com/" style="fill-rule:evenodd;clip-rule:evenodd;stroke-linejoin:round;stroke-miterlimit:2;">
    <g id="designer">
        <path d="M31.908,1.047C31.908,0.52 31.48,0.092 30.953,0.092L1.047,0.092C0.52,0.092 0.092,0.52 0.092,1.047L0.092,30.953C0.092,31.48 0.52,31.908 1.047,31.908L30.953,31.908C31.48,31.908 31.908,31.48 31.908,30.953L31.908,1.047Z" style="fill:#144e8c;"/>
        <g>
            <clipPath id="_clip1">
                <path d="M31.908,1.047C31.908,0.52 31.48,0.092 30.953,0.092L1.047,0.092C0.52,0.092 0.092,0.52 0.092,1.047L0.092,30.953C0.092,31.48 0.52,31.908 1.047,31.908L30.953,31.908C31.48,31.908 31.908,31.48 31.908,30.953L31.908,1.047Z"/>
            </clipPath>
            <g clip-path="url(#_clip1)">
                <path d="M31.908,1.047C31.908,0.52 31.48,0.092 30.953,0.092L1.047,0.092C0.52,0.092 0.092,0.52 0.092,1.047L0.092,30.953C0.092,31.48 0.52,31.908 1.047,31.908L30.953,31.908C31.48,31.908 31.908,31.48 31.908,30.953L31.908,1.047Z" style="fill:#1b72be;"/>
                <path d="M31.908,1.047C31.908,0.52 31.48,0.092 30.953,0.092L13.137,0.092L0.092,22.686L0.092,30.953C0.092,31.48 0.52,31.908 1.047,31.908L30.953,31.908C31.48,31.908 31.908,31.48 31.908,30.953L31.908,1.047Z" style="fill:#0568aa;"/>
                <path d="M14.802,31.908L12.583,31.908L6.852,20.386L18.021,0.092L19.818,0.092L8.126,20.344L14.802,31.908L14.802,31.908ZM20.813,31.908L15.279,31.908L8.759,20.615L31.91,20.615L31.908,22.723L20.813,31.908ZM15.313,0.092L13.455,0.092L0.092,23.237L0.092,26.455L15.313,0.092ZM18.541,20.198L12.248,20.198C11.513,20.198 10.83,19.814 10.463,19.178C10.096,18.543 10.096,17.757 10.463,17.122L13.614,11.665L18.541,20.198ZM31.908,20.198L19.018,20.198L13.852,11.251L20.295,0.092L22.629,0.094L19.239,11.628L20.813,14.861L31.908,19.224L31.908,20.198Z" style="fill:#074f7f;"/>
                <path d="M31.908,31.908L15.757,31.908L9.475,21.028L31.908,21.028L31.908,31.908ZM14.325,31.908L0.092,31.908L0.092,24.063L13.932,0.092L19.341,0.092L7.648,20.344L14.325,31.908ZM17.826,19.787L12.358,19.787C11.747,19.787 11.183,19.467 10.878,18.938C10.573,18.41 10.573,17.757 10.878,17.23C12.093,15.125 13.614,12.491 13.614,12.491L17.826,19.787ZM31.908,19.787L19.259,19.787L14.33,11.251L20.772,0.092L31.908,0.092L31.908,19.787Z" style="fill:url(#_Radial2);"/>
                <path d="M32.646,32.493L16.094,32.493L9.475,21.028L32.634,21.028L32.646,32.493ZM7.648,20.344L14.663,32.493L-0.884,32.493L-0.936,25.845L14.316,-0.574L19.725,-0.574L7.648,20.344ZM10.137,21.41L16.315,32.111L32.264,32.111L32.253,21.41L10.137,21.41ZM14.537,-0.192L-0.554,25.946L-0.505,32.111L14.001,32.111L7.208,20.344L19.064,-0.192L14.537,-0.192ZM17.826,19.787L12.344,19.787L12.336,19.787L12.322,19.787L12.315,19.787L12.308,19.787L12.279,19.785L12.272,19.785L12.265,19.785L12.258,19.784L12.251,19.784L12.244,19.783L12.237,19.783L12.23,19.783L12.202,19.78L12.195,19.779L12.188,19.779L12.18,19.778L12.173,19.777L12.166,19.777L12.159,19.776L12.152,19.775L12.138,19.773L12.131,19.772L12.125,19.771L12.104,19.769L12.097,19.767L12.09,19.766L12.083,19.765L12.076,19.764L12.062,19.762L12.048,19.759L12.041,19.758L12.034,19.757L12.028,19.755L12.021,19.754L12.014,19.753L12.007,19.751L12,19.75L11.993,19.748L11.987,19.747L11.98,19.745L11.973,19.744L11.966,19.742L11.959,19.741L11.946,19.737L11.939,19.736L11.925,19.732L11.912,19.729L11.885,19.721L11.872,19.718L11.865,19.716L11.858,19.714L11.852,19.712L11.845,19.71L11.839,19.707L11.832,19.705L11.825,19.703L11.806,19.697L11.799,19.694L11.786,19.69L11.779,19.688L11.766,19.683L11.76,19.681L11.753,19.678L11.747,19.676L11.74,19.673L11.734,19.671L11.715,19.663L11.708,19.66L11.702,19.658L11.695,19.655L11.689,19.653L11.676,19.647L11.67,19.644L11.664,19.642L11.657,19.639L11.645,19.633L11.632,19.627L11.626,19.624L11.62,19.622L11.613,19.618L11.607,19.616L11.601,19.613L11.582,19.603L11.57,19.597L11.558,19.591L11.552,19.587L11.546,19.584L11.54,19.581L11.534,19.578L11.528,19.574L11.509,19.564L11.503,19.561L11.497,19.558L11.492,19.554L11.486,19.55L11.48,19.547L11.474,19.543L11.468,19.54L11.462,19.536L11.456,19.533L11.45,19.529L11.444,19.525L11.438,19.522L11.427,19.514L11.415,19.507L11.409,19.503L11.404,19.499L11.398,19.495L11.392,19.491L11.387,19.488L11.381,19.484L11.375,19.48L11.37,19.476L11.364,19.472L11.358,19.468L11.342,19.456L11.336,19.452L11.33,19.447L11.325,19.443L11.319,19.439L11.314,19.435L11.308,19.431L11.303,19.426L11.292,19.418L11.287,19.414L11.281,19.409L11.276,19.405L11.271,19.4L11.26,19.392L11.255,19.387L11.249,19.383L11.244,19.378L11.239,19.374L11.228,19.365L11.223,19.36L11.218,19.356L11.208,19.346L11.202,19.342L11.187,19.328L11.182,19.323L11.177,19.318L11.172,19.313L11.167,19.308L11.162,19.303L11.157,19.299L11.147,19.289L11.142,19.284L11.133,19.274L11.123,19.264L11.118,19.259L11.113,19.254L11.108,19.249L11.104,19.244L11.099,19.239L11.094,19.234L11.09,19.228L11.085,19.223L11.08,19.218L11.076,19.213L11.062,19.197L11.048,19.181L11.044,19.176L11.039,19.17L11.035,19.165L11.03,19.159L11.026,19.154L11.022,19.148L11.017,19.143L11.013,19.138L11.009,19.132L11,19.121L10.991,19.11L10.987,19.104L10.983,19.098L10.979,19.093L10.975,19.087L10.971,19.081L10.966,19.075L10.962,19.07L10.954,19.058L10.95,19.052L10.946,19.046L10.942,19.041L10.934,19.029L10.93,19.023L10.923,19.011L10.919,19.005L10.915,18.999L10.911,18.993L10.907,18.987L10.904,18.981L10.9,18.975L10.893,18.963L10.889,18.957L10.885,18.95L10.882,18.944L10.874,18.932L10.871,18.926L10.867,18.919L10.864,18.913L10.86,18.907L10.857,18.901L10.85,18.888L10.847,18.882L10.844,18.876L10.84,18.869L10.837,18.863L10.834,18.857L10.831,18.85L10.828,18.844L10.824,18.838L10.821,18.831L10.818,18.825L10.812,18.812L10.809,18.806L10.803,18.793L10.8,18.786L10.794,18.773L10.792,18.767L10.786,18.754L10.781,18.741L10.778,18.735L10.775,18.728L10.773,18.721L10.77,18.715L10.767,18.708L10.762,18.695L10.757,18.682L10.755,18.676L10.75,18.662L10.748,18.656L10.745,18.649L10.743,18.643L10.741,18.636L10.739,18.63L10.736,18.623L10.734,18.616L10.732,18.609L10.73,18.603L10.728,18.596L10.726,18.589L10.724,18.583L10.722,18.576L10.72,18.569L10.718,18.563L10.716,18.556L10.714,18.549L10.712,18.543L10.71,18.536L10.708,18.529L10.706,18.522L10.705,18.516L10.703,18.509L10.701,18.502L10.699,18.495L10.698,18.489L10.696,18.482L10.693,18.468L10.691,18.462L10.69,18.455L10.688,18.448L10.685,18.434L10.683,18.421L10.68,18.407L10.679,18.4L10.677,18.394L10.676,18.387L10.675,18.38L10.674,18.373L10.673,18.366L10.671,18.36L10.67,18.352L10.669,18.346L10.668,18.339L10.667,18.332L10.666,18.325L10.665,18.318L10.664,18.311L10.663,18.305L10.662,18.291L10.661,18.284L10.66,18.277L10.659,18.27L10.658,18.256L10.657,18.25L10.657,18.243L10.656,18.236L10.655,18.229L10.654,18.215L10.654,18.208L10.653,18.201L10.653,18.194L10.652,18.187L10.652,18.181L10.651,18.174L10.651,18.167L10.651,18.16L10.65,18.146L10.65,18.139L10.65,18.125L10.649,18.118L10.649,18.111L10.649,18.098L10.649,18.091L10.649,18.077L10.649,18.07L10.649,18.063L10.649,18.056L10.649,18.049L10.65,18.042L10.65,18.035L10.65,18.028L10.65,18.021L10.651,18.008L10.651,18.001L10.652,17.987L10.652,17.98L10.653,17.973L10.654,17.959L10.654,17.953L10.655,17.939L10.656,17.932L10.657,17.918L10.658,17.911L10.659,17.904L10.659,17.897L10.66,17.89L10.662,17.877L10.663,17.863L10.664,17.856L10.665,17.849L10.666,17.842L10.667,17.835L10.668,17.829L10.669,17.822L10.671,17.808L10.674,17.794L10.675,17.788L10.676,17.781L10.677,17.774L10.679,17.767L10.68,17.76L10.683,17.747L10.684,17.74L10.685,17.733L10.688,17.719L10.69,17.713L10.691,17.706L10.693,17.699L10.695,17.692L10.696,17.686L10.698,17.679L10.699,17.672L10.701,17.665L10.703,17.659L10.706,17.645L10.708,17.638L10.712,17.625L10.714,17.618L10.716,17.611L10.718,17.605L10.72,17.598L10.722,17.591L10.724,17.585L10.726,17.578L10.728,17.571L10.73,17.565L10.732,17.558L10.734,17.551L10.736,17.545L10.741,17.532L10.743,17.525L10.745,17.518L10.748,17.512L10.75,17.505L10.752,17.499L10.755,17.492L10.757,17.485L10.762,17.472L10.767,17.459L10.77,17.453L10.773,17.446L10.775,17.44L10.778,17.433L10.781,17.426L10.786,17.413L10.792,17.4L10.794,17.394L10.797,17.388L10.8,17.381L10.803,17.375L10.806,17.368L10.809,17.362L10.812,17.355L10.815,17.349L10.818,17.343L10.821,17.336L10.828,17.324L10.831,17.317L10.834,17.311L10.837,17.304L10.844,17.292L10.847,17.286L10.85,17.279L10.857,17.267L10.86,17.261L10.864,17.254L10.867,17.248L10.871,17.242L10.874,17.236L10.878,17.23L13.614,12.491L17.826,19.787ZM32.627,19.787L19.258,19.787L14.33,11.251L21.157,-0.574L32.488,-0.574L32.627,19.787ZM11.209,17.42L11.206,17.425L11.203,17.43L11.2,17.435L11.198,17.44L11.195,17.445L11.192,17.449L11.19,17.454L11.185,17.464L11.182,17.469L11.174,17.484L11.172,17.488L11.169,17.493L11.167,17.499L11.165,17.503L11.16,17.513L11.157,17.518L11.155,17.523L11.153,17.528L11.15,17.533L11.148,17.538L11.146,17.543L11.144,17.548L11.142,17.553L11.139,17.558L11.135,17.568L11.133,17.573L11.131,17.578L11.129,17.583L11.127,17.588L11.125,17.594L11.123,17.599L11.121,17.604L11.119,17.609L11.117,17.614L11.115,17.619L11.113,17.624L11.111,17.629L11.109,17.634L11.107,17.64L11.106,17.645L11.104,17.65L11.102,17.655L11.1,17.66L11.099,17.665L11.097,17.67L11.095,17.675L11.092,17.686L11.09,17.691L11.089,17.696L11.087,17.701L11.086,17.706L11.084,17.712L11.083,17.717L11.081,17.722L11.08,17.728L11.078,17.733L11.077,17.738L11.075,17.743L11.073,17.754L11.071,17.759L11.069,17.769L11.067,17.774L11.066,17.78L11.065,17.785L11.064,17.79L11.061,17.801L11.059,17.811L11.057,17.822L11.056,17.827L11.055,17.833L11.054,17.838L11.053,17.843L11.052,17.848L11.05,17.859L11.048,17.87L11.047,17.875L11.047,17.88L11.046,17.886L11.045,17.891L11.044,17.896L11.043,17.902L11.042,17.912L11.041,17.917L11.041,17.923L11.04,17.928L11.039,17.934L11.039,17.939L11.038,17.944L11.038,17.95L11.037,17.96L11.036,17.966L11.035,17.976L11.034,17.987L11.034,17.993L11.034,17.998L11.033,18.003L11.033,18.009L11.032,18.019L11.032,18.025L11.032,18.03L11.032,18.035L11.032,18.041L11.031,18.046L11.031,18.052L11.031,18.057L11.031,18.062L11.031,18.067L11.031,18.073L11.031,18.078L11.031,18.089L11.031,18.094L11.031,18.105L11.031,18.111L11.031,18.116L11.031,18.121L11.032,18.127L11.032,18.132L11.032,18.137L11.032,18.143L11.032,18.148L11.033,18.159L11.033,18.164L11.034,18.17L11.034,18.18L11.035,18.186L11.035,18.191L11.036,18.202L11.037,18.207L11.038,18.218L11.039,18.228L11.039,18.234L11.04,18.239L11.041,18.25L11.042,18.255L11.043,18.266L11.044,18.271L11.045,18.277L11.047,18.287L11.048,18.298L11.049,18.303L11.05,18.309L11.052,18.319L11.053,18.324L11.055,18.335L11.056,18.34L11.057,18.346L11.059,18.356L11.06,18.361L11.063,18.372L11.064,18.377L11.066,18.388L11.067,18.393L11.069,18.398L11.07,18.404L11.071,18.409L11.073,18.414L11.075,18.424L11.077,18.43L11.078,18.435L11.08,18.44L11.081,18.445L11.083,18.451L11.084,18.456L11.087,18.466L11.089,18.471L11.09,18.476L11.094,18.487L11.095,18.492L11.097,18.497L11.099,18.502L11.1,18.507L11.102,18.513L11.104,18.518L11.106,18.523L11.107,18.528L11.109,18.533L11.111,18.538L11.113,18.543L11.115,18.548L11.117,18.554L11.121,18.564L11.123,18.569L11.125,18.574L11.127,18.579L11.129,18.584L11.131,18.589L11.137,18.604L11.139,18.609L11.142,18.614L11.144,18.619L11.146,18.624L11.148,18.629L11.15,18.634L11.155,18.644L11.157,18.649L11.16,18.654L11.162,18.659L11.165,18.664L11.167,18.669L11.169,18.674L11.172,18.679L11.174,18.684L11.177,18.689L11.179,18.694L11.187,18.708L11.19,18.713L11.192,18.718L11.195,18.723L11.198,18.728L11.2,18.733L11.203,18.738L11.206,18.742L11.209,18.747L11.211,18.752L11.214,18.757L11.217,18.762L11.22,18.766L11.223,18.771L11.226,18.776L11.229,18.781L11.231,18.785L11.234,18.79L11.237,18.795L11.24,18.799L11.243,18.804L11.246,18.808L11.249,18.813L11.255,18.822L11.258,18.827L11.262,18.831L11.265,18.836L11.268,18.84L11.271,18.845L11.277,18.854L11.28,18.858L11.284,18.863L11.29,18.871L11.293,18.876L11.296,18.88L11.3,18.885L11.303,18.889L11.306,18.893L11.313,18.902L11.316,18.906L11.32,18.91L11.323,18.914L11.327,18.919L11.33,18.923L11.333,18.927L11.337,18.931L11.34,18.935L11.344,18.94L11.347,18.944L11.351,18.948L11.355,18.952L11.358,18.956L11.362,18.96L11.365,18.964L11.369,18.968L11.372,18.972L11.376,18.976L11.38,18.98L11.383,18.984L11.387,18.988L11.391,18.992L11.395,18.996L11.398,19L11.402,19.003L11.406,19.007L11.41,19.011L11.417,19.019L11.421,19.023L11.425,19.026L11.429,19.03L11.432,19.034L11.436,19.038L11.44,19.041L11.444,19.045L11.448,19.049L11.452,19.052L11.456,19.056L11.46,19.06L11.464,19.063L11.468,19.067L11.472,19.07L11.476,19.074L11.48,19.078L11.484,19.081L11.488,19.085L11.492,19.088L11.496,19.092L11.5,19.095L11.504,19.098L11.508,19.102L11.513,19.105L11.517,19.109L11.521,19.112L11.525,19.115L11.529,19.119L11.533,19.122L11.538,19.125L11.542,19.129L11.546,19.132L11.55,19.135L11.555,19.138L11.559,19.142L11.563,19.145L11.567,19.148L11.572,19.151L11.576,19.154L11.581,19.157L11.585,19.161L11.589,19.163L11.594,19.166L11.598,19.17L11.602,19.173L11.611,19.179L11.616,19.182L11.62,19.184L11.625,19.188L11.629,19.19L11.634,19.193L11.638,19.196L11.647,19.202L11.652,19.205L11.656,19.208L11.661,19.211L11.665,19.213L11.684,19.224L11.689,19.227L11.693,19.229L11.698,19.232L11.702,19.235L11.707,19.238L11.712,19.24L11.716,19.243L11.721,19.245L11.726,19.247L11.731,19.25L11.735,19.253L11.74,19.255L11.745,19.257L11.749,19.26L11.759,19.265L11.764,19.267L11.774,19.272L11.778,19.274L11.783,19.277L11.788,19.279L11.793,19.281L11.798,19.283L11.803,19.286L11.808,19.288L11.813,19.29L11.817,19.292L11.822,19.294L11.827,19.296L11.832,19.298L11.837,19.301L11.842,19.303L11.847,19.305L11.857,19.309L11.862,19.311L11.867,19.313L11.872,19.315L11.877,19.317L11.887,19.321L11.892,19.322L11.897,19.324L11.902,19.326L11.907,19.328L11.912,19.33L11.918,19.331L11.923,19.333L11.928,19.335L11.933,19.337L11.938,19.338L11.943,19.34L11.953,19.343L11.958,19.345L11.964,19.347L11.974,19.35L11.979,19.351L11.984,19.353L11.989,19.354L11.995,19.356L12,19.357L12.005,19.358L12.011,19.36L12.016,19.361L12.021,19.363L12.026,19.364L12.032,19.365L12.037,19.367L12.042,19.368L12.047,19.369L12.053,19.371L12.058,19.372L12.063,19.373L12.068,19.374L12.074,19.375L12.079,19.376L12.084,19.377L12.09,19.379L12.095,19.38L12.1,19.381L12.106,19.382L12.111,19.383L12.116,19.384L12.122,19.385L12.127,19.385L12.138,19.387L12.143,19.388L12.149,19.389L12.154,19.39L12.16,19.391L12.165,19.392L12.17,19.392L12.176,19.393L12.181,19.394L12.187,19.394L12.198,19.396L12.203,19.397L12.208,19.397L12.214,19.398L12.219,19.398L12.225,19.399L12.23,19.399L12.236,19.4L12.242,19.4L12.247,19.401L12.252,19.401L12.258,19.402L12.263,19.402L12.269,19.403L12.274,19.403L12.28,19.403L12.286,19.403L12.291,19.404L12.297,19.404L12.302,19.404L12.308,19.404L12.313,19.405L12.319,19.405L12.324,19.405L12.335,19.405L12.341,19.405L17.165,19.405L13.614,13.254L11.209,17.42ZM21.377,-0.192L14.771,11.251L19.478,19.405L32.242,19.405L32.109,-0.192L21.377,-0.192Z" style="fill:url(#_Linear3);"/>
            </g>
        </g>
    </g>
    <defs>
        <radialGradient id="_Radial2" cx="0" cy="0" r="1" gradientUnits="userSpaceOnUse" gradientTransform="matrix(37.7948,0,0,37.7949,24.4099,-5.88738)"><stop offset="0" style="stop-color:#6be1fb;stop-opacity:1"/><stop offset="1" style="stop-color:#38bdfa;stop-opacity:1"/></radialGradient>
        <linearGradient id="_Linear3" x1="0" y1="0" x2="1" y2="0" gradientUnits="userSpaceOnUse" gradientTransform="matrix(-0.000555285,-31.8155,31.8155,-0.000555286,56261.6,30.927)"><stop offset="0" style="stop-color:#4ac5fa;stop-opacity:1"/><stop offset="1" style="stop-color:#97e8fc;stop-opacity:1"/></linearGradient>
    </defs>
</svg>
