<?xml version="1.0" encoding="UTF-8" standalone="no"?>
<!DOCTYPE svg PUBLIC "-//W3C//DTD SVG 1.1//EN" "http://www.w3.org/Graphics/SVG/1.1/DTD/svg11.dtd">
<svg width="100%" height="100%" viewBox="0 0 32 32" version="1.1" xmlns="http://www.w3.org/2000/svg" xmlns:xlink="http://www.w3.org/1999/xlink" xml:space="preserve" xmlns:serif="http://www.serif.com/" style="fill-rule:evenodd;clip-rule:evenodd;stroke-linejoin:round;stroke-miterlimit:2;">
    <g id="designer">
        <path d="M31.934,1.047C31.934,0.52 31.506,0.092 30.979,0.092L1.073,0.092C0.546,0.092 0.118,0.52 0.118,1.047L0.118,30.953C0.118,31.48 0.546,31.908 1.073,31.908L30.979,31.908C31.506,31.908 31.934,31.48 31.934,30.953L31.934,1.047Z" style="fill:#144e8c;"/>
        <g>
            <path d="M31.934,1.047C31.934,0.52 31.506,0.092 30.979,0.092L1.073,0.092C0.546,0.092 0.118,0.52 0.118,1.047L0.118,30.953C0.118,31.48 0.546,31.908 1.073,31.908L30.979,31.908C31.506,31.908 31.934,31.48 31.934,30.953L31.934,1.047Z" style="fill:#1b72be;"/>
            <path d="M31.934,1.047C31.934,0.52 31.506,0.092 30.979,0.092L13.163,0.092L0.118,22.686L0.118,30.953C0.118,31.48 0.546,31.908 1.073,31.908L30.979,31.908C31.506,31.908 31.934,31.48 31.934,30.953L31.934,1.047Z" style="fill:#0568aa;"/>
            <path d="M14.828,31.908L12.609,31.908L6.878,20.386L18.047,0.092L19.844,0.092L8.152,20.344L14.828,31.908L14.828,31.908ZM20.839,31.908L15.305,31.908L8.785,20.615L31.936,20.615L31.934,22.723L20.839,31.908ZM15.339,0.092L13.481,0.092L0.118,23.237L0.118,26.455L15.339,0.092ZM18.567,20.198L12.274,20.198C11.539,20.198 10.856,19.814 10.489,19.178C10.122,18.543 10.122,17.757 10.489,17.122L13.64,11.665L18.567,20.198ZM31.934,20.198L19.044,20.198L13.878,11.251L20.321,0.092L22.655,0.094L19.265,11.628L20.839,14.861L31.934,19.224L31.934,20.198Z" style="fill:#074f7f;"/>
            <path d="M31.934,31.908L15.783,31.908L9.501,21.028L31.934,21.028L31.934,31.908ZM14.351,31.908L0.118,31.908L0.118,24.063L13.958,0.092L19.367,0.092L7.674,20.344L14.351,31.908ZM17.852,19.787L12.384,19.787C11.773,19.787 11.209,19.467 10.904,18.938C10.599,18.41 10.599,17.757 10.904,17.23C12.119,15.125 13.64,12.491 13.64,12.491L17.852,19.787ZM31.934,19.787L19.285,19.787L14.356,11.251L20.798,0.092L31.934,0.092L31.934,19.787Z" style="fill:#38d9fa;"/>
            <path d="M7.674,20.344L14.351,31.908L13.91,31.908L7.234,20.344L18.926,0.092L19.366,0.092L7.674,20.344ZM31.934,21.028L31.934,21.41L10.163,21.41L16.224,31.908L15.783,31.908L9.501,21.028L31.934,21.028ZM0.118,24.827L0.118,24.063L13.958,0.092L14.399,0.092L0.118,24.827ZM17.852,19.787L12.284,19.784L11.999,19.744L11.741,19.663L11.523,19.558L11.302,19.405L11.07,19.176L10.876,18.888L10.754,18.596L10.685,18.27L10.682,17.932L10.738,17.625L10.847,17.336L10.904,17.23L13.64,12.491L17.852,19.787ZM21.239,0.092L14.796,11.251L19.504,19.405L31.934,19.405L31.934,19.787L19.284,19.787L14.356,11.251L20.798,0.092L21.239,0.092ZM11.235,17.42L11.137,17.629L11.074,17.87L11.058,18.132L11.093,18.393L11.17,18.619L11.281,18.822L11.409,18.984L11.547,19.112L11.687,19.211L11.848,19.294L12.005,19.351L12.175,19.389L12.322,19.404L12.367,19.405L17.191,19.405L13.64,13.254L11.235,17.42Z" style="fill:#4ac5fa;"/>
        </g>
    </g>
</svg>
