<?xml version="1.0" encoding="UTF-8" standalone="no"?>
<!DOCTYPE svg PUBLIC "-//W3C//DTD SVG 1.1//EN" "http://www.w3.org/Graphics/SVG/1.1/DTD/svg11.dtd">
<svg width="100%" height="100%" viewBox="0 0 32 32" version="1.1" xmlns="http://www.w3.org/2000/svg" xmlns:xlink="http://www.w3.org/1999/xlink" xml:space="preserve" xmlns:serif="http://www.serif.com/" style="fill-rule:evenodd;clip-rule:evenodd;stroke-linejoin:round;stroke-miterlimit:2;">
    <path id="docker" d="M31.335,12.028C30.615,11.543 28.955,11.369 27.68,11.609C27.515,10.409 26.845,9.364 25.626,8.424L24.926,7.959L24.46,8.659C23.54,10.049 23.291,12.338 24.276,13.848C23.841,14.083 22.985,14.403 21.856,14.383L0.122,14.383C-0.313,16.923 0.412,20.223 2.322,22.488C4.177,24.683 6.957,25.798 10.591,25.798C18.461,25.798 24.286,22.173 27.01,15.588C28.08,15.608 30.39,15.593 31.575,13.328C31.65,13.203 31.905,12.668 32,12.473L31.335,12.028ZM17.496,10.639L14.191,10.639L14.191,13.608L17.496,13.608L17.496,10.639ZM9.686,10.634L6.382,10.634L6.382,13.603L9.686,13.603L9.686,10.634ZM13.591,10.634L10.287,10.634L10.287,13.603L13.591,13.603L13.591,10.634ZM5.787,10.634L2.482,10.634L2.482,13.603L5.787,13.603L5.787,10.634ZM21.406,10.634L18.101,10.634L18.101,13.603L21.406,13.603L21.406,10.634ZM17.496,7.029L14.191,7.029L14.191,10.034L17.496,10.034L17.496,7.029ZM9.686,7.029L6.382,7.029L6.382,10.034L9.686,10.034L9.686,7.029ZM13.591,7.029L10.287,7.029L10.287,10.034L13.591,10.034L13.591,7.029ZM17.496,3.394L14.191,3.394L14.191,6.429L17.496,6.429L17.496,3.394Z" style="fill:#099cec;"/>
</svg>
