<?xml version="1.0" encoding="UTF-8" standalone="no"?>
<!DOCTYPE svg PUBLIC "-//W3C//DTD SVG 1.1//EN" "http://www.w3.org/Graphics/SVG/1.1/DTD/svg11.dtd">
<svg width="100%" height="100%" viewBox="0 0 32 32" version="1.1" xmlns="http://www.w3.org/2000/svg" xmlns:xlink="http://www.w3.org/1999/xlink" xml:space="preserve" xmlns:serif="http://www.serif.com/" style="fill-rule:evenodd;clip-rule:evenodd;stroke-linejoin:round;stroke-miterlimit:2;">
    <g id="git">
        <path d="M31.415,14.578C31.414,14.578 31.414,14.578 31.414,14.578L17.415,0.57C16.66,-0.187 15.339,-0.186 14.586,0.569L0.585,14.578C0.208,14.957 -0,15.459 -0,15.993C-0,16.527 0.208,17.03 0.586,17.408L14.585,31.415C14.962,31.794 15.465,32.002 16,32.002C16.535,32.002 17.038,31.794 17.414,31.416L31.414,17.408C31.792,17.03 32,16.527 32,15.993C32,15.459 31.792,14.957 31.415,14.578Z" style="fill:#ef473b;fill-rule:nonzero;"/>
        <path d="M31.575,16.922L17.429,31.077C17.049,31.458 16.541,31.669 16,31.669C15.459,31.669 14.951,31.458 14.57,31.076L0.425,16.922C0.26,16.757 0.134,16.564 0.036,16.359C0.109,16.754 0.296,17.118 0.586,17.408L14.585,31.415C14.962,31.794 15.465,32.002 16,32.002C16.535,32.002 17.038,31.794 17.414,31.416L31.414,17.408C31.704,17.118 31.891,16.754 31.964,16.359C31.866,16.564 31.74,16.757 31.575,16.922Z" style="fill:#010101;fill-opacity:0.1;fill-rule:nonzero;"/>
        <path d="M22.667,13.336C22.167,13.336 21.704,13.482 21.304,13.723L18.28,10.699C18.52,10.298 18.667,9.836 18.667,9.336C18.667,7.865 17.47,6.669 16,6.669C15.507,6.669 15.05,6.813 14.654,7.047L11.382,3.775L10.439,4.718L13.711,7.99C13.477,8.386 13.333,8.843 13.333,9.336C13.333,10.575 14.187,11.61 15.333,11.908L15.333,20.097C14.187,20.395 13.333,21.43 13.333,22.669C13.333,24.14 14.53,25.336 16,25.336C17.47,25.336 18.667,24.14 18.667,22.669C18.667,21.43 17.813,20.395 16.667,20.097L16.667,11.908C16.902,11.846 17.123,11.753 17.329,11.634L20.369,14.673C20.14,15.066 20,15.516 20,16.002C20,17.473 21.197,18.669 22.667,18.669C24.137,18.669 25.333,17.473 25.333,16.002C25.333,14.532 24.137,13.336 22.667,13.336Z" style="fill:#fff;fill-rule:nonzero;"/>
        <path d="M0.585,14.912L14.586,0.903C15.339,0.147 16.66,0.146 17.415,0.903L31.414,14.911C31.414,14.911 31.414,14.912 31.415,14.912C31.752,15.25 31.945,15.689 31.984,16.159C31.988,16.104 32,16.049 32,15.993C32,15.459 31.792,14.957 31.415,14.578C31.414,14.578 31.414,14.578 31.414,14.578L17.415,0.57C16.66,-0.187 15.339,-0.186 14.586,0.569L0.585,14.578C0.208,14.957 -0,15.459 -0,15.993C-0,16.049 0.012,16.104 0.016,16.159C0.055,15.689 0.248,15.25 0.585,14.912Z" style="fill:#fff;fill-opacity:0.2;fill-rule:nonzero;"/>
        <path d="M24.732,14.336C25.102,14.794 25.333,15.369 25.333,16.002C25.333,17.473 24.137,18.669 22.667,18.669C21.197,18.669 20,17.473 20,16.002C20,15.516 20.14,15.066 20.369,14.673L17.329,11.634C17.123,11.753 16.902,11.846 16.667,11.908L16.667,20.097C17.813,20.395 18.667,21.43 18.667,22.669C18.667,24.14 17.47,25.336 16,25.336C15.318,25.336 14.702,25.071 14.229,24.648L19.205,29.624L29.609,19.214L24.732,14.336ZM18.28,10.699L21.304,13.723C21.704,13.482 22.167,13.336 22.667,13.336C23.3,13.336 23.875,13.567 24.333,13.937L18.096,7.701L18.093,7.703C18.447,8.156 18.667,8.718 18.667,9.336C18.667,9.836 18.52,10.298 18.28,10.699Z" style="fill:url(#_Linear1);fill-rule:nonzero;"/>
        <path d="M31.415,14.578C31.414,14.578 31.414,14.578 31.414,14.578L17.415,0.57C16.66,-0.187 15.339,-0.186 14.586,0.569L0.585,14.578C0.208,14.957 -0,15.459 -0,15.993C-0,16.527 0.208,17.03 0.586,17.408L14.585,31.415C14.962,31.794 15.465,32.002 16,32.002C16.535,32.002 17.038,31.794 17.414,31.416L31.414,17.408C31.792,17.03 32,16.527 32,15.993C32,15.459 31.792,14.957 31.415,14.578Z" style="fill:url(#_Linear2);fill-rule:nonzero;"/>
    </g>
    <defs>
        <linearGradient id="_Linear1" x1="0" y1="0" x2="1" y2="0" gradientUnits="userSpaceOnUse" gradientTransform="matrix(11.5164,11.5164,-11.5164,11.5164,12.8924,12.9038)"><stop offset="0" style="stop-color:#010101;stop-opacity:0.1"/><stop offset="1" style="stop-color:#010101;stop-opacity:0"/></linearGradient>
        <linearGradient id="_Linear2" x1="0" y1="0" x2="1" y2="0" gradientUnits="userSpaceOnUse" gradientTransform="matrix(26.6261,12.4159,-12.4159,26.6261,2.68509,9.78889)"><stop offset="0" style="stop-color:#fff;stop-opacity:0.2"/><stop offset="1" style="stop-color:#fff;stop-opacity:0"/></linearGradient>
    </defs>
</svg>
