<?xml version="1.0" encoding="UTF-8" standalone="no"?>
<!DOCTYPE svg PUBLIC "-//W3C//DTD SVG 1.1//EN" "http://www.w3.org/Graphics/SVG/1.1/DTD/svg11.dtd">
<svg width="100%" height="100%" viewBox="0 0 32 32" version="1.1" xmlns="http://www.w3.org/2000/svg" xmlns:xlink="http://www.w3.org/1999/xlink" xml:space="preserve" xmlns:serif="http://www.serif.com/" style="fill-rule:evenodd;clip-rule:evenodd;stroke-linejoin:round;stroke-miterlimit:2;">
    <g id="github">
        <circle cx="16.026" cy="16.241" r="15.736" style="fill:#fff;"/>
        <path d="M16.025,0C7.189,0 0.026,7.163 0.026,16C0.026,23.07 4.61,29.066 10.968,31.183C11.769,31.329 12.06,30.835 12.06,30.411C12.06,30.032 12.046,29.025 12.039,27.69C7.588,28.656 6.649,25.545 6.649,25.545C5.921,23.697 4.872,23.205 4.872,23.205C3.42,22.212 4.982,22.232 4.982,22.232C6.588,22.346 7.433,23.881 7.433,23.881C8.86,26.326 11.178,25.619 12.09,25.211C12.235,24.177 12.648,23.471 13.105,23.072C9.553,22.668 5.817,21.295 5.817,15.164C5.817,13.417 6.441,11.989 7.464,10.87C7.299,10.466 6.75,8.839 7.621,6.636C7.621,6.636 8.964,6.206 12.021,8.276C13.297,7.922 14.666,7.744 16.026,7.738C17.385,7.744 18.754,7.922 20.032,8.276C23.087,6.206 24.427,6.636 24.427,6.636C25.301,8.839 24.752,10.466 24.587,10.87C25.612,11.989 26.232,13.417 26.232,15.164C26.232,21.31 22.491,22.663 18.926,23.059C19.501,23.553 20.012,24.529 20.012,26.022C20.012,28.16 19.993,29.886 19.993,30.411C19.993,30.839 20.28,31.337 21.093,31.181C27.446,29.06 32.026,23.068 32.026,16C32.026,7.163 24.862,0 16.025,0" style="fill:#181717;"/>
    </g>
</svg>
