<?xml version="1.0" encoding="UTF-8" standalone="no"?>
<!DOCTYPE svg PUBLIC "-//W3C//DTD SVG 1.1//EN" "http://www.w3.org/Graphics/SVG/1.1/DTD/svg11.dtd">
<svg width="100%" height="100%" viewBox="0 0 32 32" version="1.1" xmlns="http://www.w3.org/2000/svg" xmlns:xlink="http://www.w3.org/1999/xlink" xml:space="preserve" xmlns:serif="http://www.serif.com/" style="fill-rule:evenodd;clip-rule:evenodd;stroke-linejoin:round;stroke-miterlimit:2;">
    <g id="javascript">
        <rect x="0" y="0" width="32" height="32" style="fill:#f7df1e;"/>
        <path d="M21.496,25C22.14,26.053 22.979,26.826 24.462,26.826C25.708,26.826 26.504,26.203 26.504,25.343C26.504,24.312 25.686,23.947 24.315,23.347L23.563,23.024C21.393,22.1 19.952,20.942 19.952,18.493C19.952,16.238 21.67,14.521 24.356,14.521C26.267,14.521 27.642,15.187 28.632,16.929L26.291,18.433C25.775,17.508 25.219,17.144 24.356,17.144C23.475,17.144 22.917,17.703 22.917,18.433C22.917,19.335 23.475,19.7 24.765,20.259L25.517,20.581C28.072,21.676 29.515,22.793 29.515,25.304C29.515,28.012 27.388,29.495 24.532,29.495C21.739,29.495 19.935,28.164 19.052,26.42L21.496,25ZM10.873,25.261C11.346,26.099 11.775,26.807 12.809,26.807C13.797,26.807 14.42,26.421 14.42,24.918L14.42,14.693L17.427,14.693L17.427,24.958C17.427,28.072 15.601,29.489 12.937,29.489C10.529,29.489 9.135,28.243 8.426,26.743L10.873,25.261Z" style="fill-rule:nonzero;"/>
    </g>
</svg>
