<?xml version="1.0" encoding="UTF-8" standalone="no"?>
<!DOCTYPE svg PUBLIC "-//W3C//DTD SVG 1.1//EN" "http://www.w3.org/Graphics/SVG/1.1/DTD/svg11.dtd">
<svg width="100%" height="100%" viewBox="0 0 32 32" version="1.1" xmlns="http://www.w3.org/2000/svg" xmlns:xlink="http://www.w3.org/1999/xlink" xml:space="preserve" xmlns:serif="http://www.serif.com/" style="fill-rule:evenodd;clip-rule:evenodd;stroke-linejoin:round;stroke-miterlimit:2;">
    <path id="less" d="M30.635,14.147C30.635,13.122 30.795,12.517 30.795,11.417C30.795,9.707 30.165,9.156 28.77,9.156L27.744,9.156L27.744,10.367L28.059,10.367C28.77,10.367 28.925,10.602 28.925,11.472C28.925,12.287 28.845,13.102 28.845,14.047C28.845,15.257 29.24,15.727 30.025,15.913L30.025,15.992C29.235,16.177 28.845,16.648 28.845,17.858C28.845,18.803 28.925,19.568 28.925,20.433C28.925,21.328 28.74,21.563 28.059,21.563L28.059,21.588L27.744,21.588L27.744,22.848L28.77,22.848C30.16,22.848 30.795,22.298 30.795,20.588C30.795,19.458 30.635,18.878 30.635,17.858C30.635,17.308 30.975,16.727 32,16.678L32,15.312C30.975,15.277 30.635,14.697 30.635,14.147ZM25.354,15.748C24.564,15.432 23.829,15.247 23.829,14.722C23.829,14.327 24.144,14.092 24.724,14.092C25.304,14.092 25.829,14.327 26.404,14.747L27.454,13.357C26.799,12.857 25.904,12.332 24.694,12.332C22.908,12.332 21.698,13.357 21.698,14.802C21.698,16.088 22.829,16.748 23.774,17.113C24.589,17.428 25.379,17.693 25.379,18.218C25.379,18.613 25.064,18.873 24.354,18.873C23.699,18.873 23.039,18.608 22.328,18.058L21.278,19.583C22.068,20.238 23.274,20.688 24.274,20.688C26.374,20.688 27.504,19.583 27.504,18.138C27.504,16.693 26.379,16.088 25.354,15.748ZM7.406,18.718C7.221,18.718 6.986,18.558 6.986,18.063L6.986,9.152L3.256,9.152C1.835,9.152 1.205,9.702 1.205,11.412C1.205,12.542 1.365,13.172 1.365,14.142C1.365,14.692 1.025,15.272 -0,15.322L-0,16.688C1.025,16.713 1.365,17.293 1.365,17.843C1.365,18.813 1.205,19.393 1.205,20.523C1.205,22.233 1.835,22.784 3.23,22.784L4.256,22.784L4.256,21.573L3.941,21.573C3.286,21.573 3.075,21.308 3.075,20.443C3.075,19.578 3.155,18.838 3.155,17.868C3.155,16.658 2.76,16.188 1.975,16.002L1.975,15.922C2.765,15.737 3.155,15.267 3.155,14.057C3.155,13.112 3.075,12.347 3.075,11.482C3.075,10.617 3.26,10.377 3.941,10.377L4.646,10.377L4.646,17.918C4.646,19.523 5.196,20.573 6.801,20.573C7.301,20.573 7.696,20.493 7.981,20.388L7.716,18.678C7.561,18.718 7.486,18.718 7.406,18.718ZM18.993,15.748C18.178,15.432 17.443,15.247 17.443,14.722C17.443,14.327 17.758,14.092 18.338,14.092C18.918,14.092 19.443,14.327 20.018,14.747L21.068,13.357C20.413,12.857 19.518,12.332 18.308,12.332C16.523,12.332 15.312,13.357 15.312,14.802C15.312,16.088 16.443,16.748 17.388,17.113C18.203,17.428 18.993,17.693 18.993,18.218C18.993,18.613 18.678,18.873 17.968,18.873C17.313,18.873 16.653,18.608 15.942,18.058L14.917,19.583C15.707,20.238 16.913,20.688 17.913,20.688C20.013,20.688 21.143,19.583 21.143,18.138C21.148,16.693 20.018,16.088 18.993,15.748ZM11.242,12.307C9.322,12.307 7.486,13.912 7.536,16.433C7.536,19.033 9.246,20.558 11.502,20.558C12.447,20.558 13.497,20.218 14.312,19.663L13.522,18.273C12.942,18.613 12.392,18.773 11.812,18.773C10.762,18.773 9.947,18.273 9.736,17.063L14.497,17.063C14.522,16.878 14.577,16.513 14.577,16.093C14.607,13.962 13.447,12.307 11.242,12.307ZM9.742,15.617C9.901,14.567 10.532,14.067 11.267,14.067C12.212,14.067 12.582,14.722 12.582,15.617L9.742,15.617Z" style="fill:#eaf1f9;fill-rule:nonzero;"/>
</svg>
