<?xml version="1.0" encoding="UTF-8" standalone="no"?>
<!DOCTYPE svg PUBLIC "-//W3C//DTD SVG 1.1//EN" "http://www.w3.org/Graphics/SVG/1.1/DTD/svg11.dtd">
<svg width="100%" height="100%" viewBox="0 0 32 32" version="1.1" xmlns="http://www.w3.org/2000/svg" xmlns:xlink="http://www.w3.org/1999/xlink" xml:space="preserve" xmlns:serif="http://www.serif.com/" style="fill-rule:evenodd;clip-rule:evenodd;stroke-linejoin:round;stroke-miterlimit:2;">
    <g id="linkedin-square">
        <rect x="3.177" y="3.219" width="26.309" height="26.694" style="fill:#fff;"/>
        <path d="M29.131,0L2.921,0C1.322,0 0.026,1.296 0.026,2.895L0.026,29.105C0.026,30.704 1.322,32 2.921,32L29.131,32C30.73,32 32.026,30.704 32.026,29.105L32.026,2.895C32.026,1.296 30.73,0 29.131,0ZM9.928,27.631C9.928,28.096 9.551,28.473 9.086,28.473L5.5,28.473C5.035,28.473 4.658,28.096 4.658,27.631L4.658,12.599C4.658,12.134 5.035,11.757 5.5,11.757L9.086,11.757C9.551,11.757 9.928,12.134 9.928,12.599L9.928,27.631ZM7.293,10.34C5.411,10.34 3.886,8.815 3.886,6.933C3.886,5.052 5.411,3.527 7.293,3.527C9.174,3.527 10.699,5.052 10.699,6.933C10.699,8.815 9.174,10.34 7.293,10.34ZM28.668,27.699C28.668,28.126 28.321,28.473 27.893,28.473L24.045,28.473C23.618,28.473 23.271,28.126 23.271,27.699L23.271,20.648C23.271,19.596 23.579,16.039 20.522,16.039C18.151,16.039 17.67,18.474 17.573,19.566L17.573,27.699C17.573,28.126 17.226,28.473 16.798,28.473L13.077,28.473C12.649,28.473 12.302,28.126 12.302,27.699L12.302,12.531C12.302,12.104 12.649,11.757 13.077,11.757L16.798,11.757C17.226,11.757 17.573,12.104 17.573,12.531L17.573,13.843C18.452,12.523 19.759,11.505 22.541,11.505C28.703,11.505 28.668,17.261 28.668,20.424L28.668,27.699Z" style="fill:#0077b7;fill-rule:nonzero;"/>
    </g>
</svg>
