<?xml version="1.0" encoding="UTF-8" standalone="no"?>
<!DOCTYPE svg PUBLIC "-//W3C//DTD SVG 1.1//EN" "http://www.w3.org/Graphics/SVG/1.1/DTD/svg11.dtd">
<svg width="100%" height="100%" viewBox="0 0 32 32" version="1.1" xmlns="http://www.w3.org/2000/svg" xmlns:xlink="http://www.w3.org/1999/xlink" xml:space="preserve" xmlns:serif="http://www.serif.com/" style="fill-rule:evenodd;clip-rule:evenodd;stroke-linejoin:round;stroke-miterlimit:2;">
    <g id="linkedin-circle">
        <rect x="5.887" y="6.116" width="20.188" height="19.849" style="fill:#fff;"/>
        <path d="M24.98,23.54L24.98,17.293C24.98,13.947 23.193,12.389 20.811,12.389C18.889,12.389 18.028,13.447 17.548,14.189L17.548,12.645L13.926,12.645C13.974,13.668 13.926,23.54 13.926,23.54L17.548,23.54L17.548,17.455C17.548,17.131 17.571,16.805 17.667,16.573C17.929,15.922 18.524,15.249 19.524,15.249C20.835,15.249 21.359,16.247 21.359,17.711L21.359,23.54L24.98,23.54ZM10.111,11.158C11.374,11.158 12.161,10.321 12.161,9.275C12.137,8.207 11.374,7.394 10.135,7.394C8.897,7.394 8.087,8.206 8.087,9.275C8.087,10.321 8.873,11.158 10.089,11.158L10.111,11.158ZM16,32C7.164,32 -0,24.836 -0,16C-0,7.163 7.164,0 16,0C24.836,0 32,7.163 32,16C32,24.836 24.836,32 16,32ZM11.922,23.54L11.922,12.645L8.301,12.645L8.301,23.54L11.922,23.54Z" style="fill:#007ab9;"/>
    </g>
</svg>
