<?xml version="1.0" encoding="UTF-8" standalone="no"?>
<!DOCTYPE svg PUBLIC "-//W3C//DTD SVG 1.1//EN" "http://www.w3.org/Graphics/SVG/1.1/DTD/svg11.dtd">
<svg width="100%" height="100%" viewBox="0 0 32 32" version="1.1" xmlns="http://www.w3.org/2000/svg" xmlns:xlink="http://www.w3.org/1999/xlink" xml:space="preserve" xmlns:serif="http://www.serif.com/" style="fill-rule:evenodd;clip-rule:evenodd;stroke-linejoin:round;stroke-miterlimit:2;">
    <g id="linkedin-circle">
        <rect x="5.913" y="6.116" width="20.188" height="19.849" style="fill:#fff;"/>
        <path d="M25.006,23.54L25.006,17.293C25.006,13.947 23.219,12.389 20.837,12.389C18.915,12.389 18.054,13.447 17.574,14.189L17.574,12.645L13.952,12.645C14,13.668 13.952,23.54 13.952,23.54L17.574,23.54L17.574,17.455C17.574,17.131 17.597,16.805 17.693,16.573C17.955,15.922 18.55,15.249 19.55,15.249C20.861,15.249 21.385,16.247 21.385,17.711L21.385,23.54L25.006,23.54ZM10.137,11.158C11.4,11.158 12.187,10.321 12.187,9.275C12.163,8.207 11.4,7.394 10.161,7.394C8.923,7.394 8.113,8.206 8.113,9.275C8.113,10.321 8.899,11.158 10.115,11.158L10.137,11.158ZM16.026,32C7.19,32 0.026,24.836 0.026,16C0.026,7.163 7.19,0 16.026,0C24.862,0 32.026,7.163 32.026,16C32.026,24.836 24.862,32 16.026,32ZM11.948,23.54L11.948,12.645L8.327,12.645L8.327,23.54L11.948,23.54Z" style="fill:#007ab9;"/>
    </g>
</svg>
