<?xml version="1.0" encoding="UTF-8" standalone="no"?>
<!DOCTYPE svg PUBLIC "-//W3C//DTD SVG 1.1//EN" "http://www.w3.org/Graphics/SVG/1.1/DTD/svg11.dtd">
<svg width="100%" height="100%" viewBox="0 0 32 32" version="1.1" xmlns="http://www.w3.org/2000/svg" xmlns:xlink="http://www.w3.org/1999/xlink" xml:space="preserve" xmlns:serif="http://www.serif.com/" style="fill-rule:evenodd;clip-rule:evenodd;stroke-linejoin:round;stroke-miterlimit:2;">
    <g id="next">
        <g id="EXT---Type-something" serif:id="EXT-+-Type-something">
            <path id="EXT" d="M7.551,11.405L13.586,11.405L13.586,11.882L8.104,11.882L8.104,15.475L13.259,15.475L13.259,15.953L8.104,15.953L8.104,19.897L13.649,19.897L13.649,20.375L7.551,20.375L7.551,11.405ZM14.127,11.405L14.768,11.405L17.61,15.35L20.514,11.405L24.465,6.394L17.974,15.764L21.319,20.375L20.653,20.375L17.61,16.179L14.554,20.375L13.9,20.375L17.27,15.764L14.127,11.405ZM21.558,11.882L21.558,11.405L28.436,11.405L28.436,11.882L25.267,11.882L25.267,20.375L24.714,20.375L24.714,11.882L21.558,11.882Z" style="fill:#f3f3f3;fill-rule:nonzero;"/>
            <path id="Type-something" d="M-0,11.405L0.692,11.405L10.228,25.606L6.287,20.375L0.578,12.083L0.553,20.375L-0,20.375L-0,11.405Z" style="fill:#f3f3f3;fill-rule:nonzero;"/>
        </g>
        <path id="_.JS" serif:id=".JS" d="M28.38,19.753C28.495,19.753 28.578,19.666 28.578,19.554C28.578,19.441 28.495,19.354 28.38,19.354C28.267,19.354 28.182,19.441 28.182,19.554C28.182,19.666 28.267,19.753 28.38,19.753ZM28.924,19.228C28.924,19.56 29.165,19.777 29.516,19.777C29.89,19.777 30.116,19.554 30.116,19.165L30.116,17.796L29.815,17.796L29.815,19.163C29.815,19.379 29.706,19.495 29.513,19.495C29.341,19.495 29.224,19.387 29.22,19.228L28.924,19.228ZM30.51,19.21C30.532,19.556 30.821,19.777 31.252,19.777C31.712,19.777 32,19.546 32,19.175C32,18.884 31.836,18.724 31.438,18.631L31.224,18.579C30.971,18.52 30.868,18.441 30.868,18.302C30.868,18.128 31.027,18.014 31.265,18.014C31.491,18.014 31.647,18.125 31.676,18.304L31.969,18.304C31.952,17.978 31.664,17.749 31.269,17.749C30.845,17.749 30.563,17.978 30.563,18.323C30.563,18.607 30.723,18.776 31.074,18.858L31.324,18.918C31.582,18.978 31.695,19.067 31.695,19.214C31.695,19.386 31.517,19.511 31.275,19.511C31.015,19.511 30.835,19.394 30.809,19.21L30.51,19.21Z" style="fill:#f3f3f3;fill-rule:nonzero;"/>
    </g>
</svg>
