<?xml version="1.0" encoding="UTF-8" standalone="no"?>
<!DOCTYPE svg PUBLIC "-//W3C//DTD SVG 1.1//EN" "http://www.w3.org/Graphics/SVG/1.1/DTD/svg11.dtd">
<svg width="100%" height="100%" viewBox="0 0 32 32" version="1.1" xmlns="http://www.w3.org/2000/svg" xmlns:xlink="http://www.w3.org/1999/xlink" xml:space="preserve" xmlns:serif="http://www.serif.com/" style="fill-rule:evenodd;clip-rule:evenodd;stroke-linejoin:round;stroke-miterlimit:2;">
    <path id="node" d="M16.006,32C15.577,32 15.151,31.888 14.776,31.671L10.861,29.354C10.276,29.027 10.562,28.911 10.755,28.844C11.534,28.571 11.692,28.51 12.524,28.037C12.612,27.987 12.726,28.005 12.816,28.058L15.823,29.842C15.932,29.901 16.086,29.901 16.187,29.842L27.913,23.074C28.021,23.012 28.092,22.886 28.092,22.757L28.092,9.226C28.092,9.091 28.021,8.971 27.91,8.903L16.189,2.14C16.08,2.076 15.937,2.076 15.828,2.14L4.109,8.903C3.996,8.968 3.923,9.094 3.923,9.223L3.923,22.754C3.923,22.883 3.994,23.006 4.105,23.068L7.316,24.923C9.06,25.795 10.125,24.768 10.125,23.734L10.125,10.379C10.125,10.189 10.275,10.042 10.466,10.042L11.951,10.042C12.136,10.042 12.289,10.189 12.289,10.379L12.289,23.74C12.289,26.065 11.021,27.4 8.816,27.4C8.138,27.4 7.604,27.4 6.113,26.667L3.037,24.894C2.277,24.453 1.807,23.632 1.807,22.754L1.807,9.223C1.807,8.342 2.277,7.521 3.037,7.086L14.775,0.315C15.517,-0.105 16.503,-0.105 17.24,0.315L28.963,7.089C29.72,7.526 30.193,8.345 30.193,9.226L30.193,22.757C30.193,23.635 29.72,24.453 28.963,24.894L17.24,31.665C16.864,31.882 16.439,31.994 16.004,31.994L16.006,32ZM19.628,22.676C14.497,22.676 13.421,20.321 13.421,18.346C13.421,18.158 13.573,18.008 13.761,18.008L15.275,18.008C15.443,18.008 15.584,18.13 15.61,18.295C15.839,19.839 16.52,20.617 19.622,20.617C22.094,20.617 23.144,20.059 23.144,18.748C23.144,17.994 22.845,17.433 19.006,17.057C15.795,16.74 13.811,16.033 13.811,13.465C13.811,11.099 15.807,9.69 19.15,9.69C22.904,9.69 24.765,10.993 24.999,13.794C25.008,13.89 24.973,13.984 24.908,14.055C24.844,14.122 24.753,14.163 24.659,14.163L23.136,14.163C22.977,14.163 22.839,14.052 22.807,13.899C22.44,12.276 21.554,11.757 19.144,11.757C16.446,11.757 16.132,12.696 16.132,13.4C16.132,14.254 16.502,14.504 20.142,14.985C23.746,15.464 25.457,16.139 25.457,18.672C25.457,21.225 23.326,22.69 19.611,22.69L19.628,22.676Z" style="fill:#689f63;"/>
</svg>
