<?xml version="1.0" encoding="UTF-8" standalone="no"?>
<!DOCTYPE svg PUBLIC "-//W3C//DTD SVG 1.1//EN" "http://www.w3.org/Graphics/SVG/1.1/DTD/svg11.dtd">
<svg width="100%" height="100%" viewBox="0 0 32 32" version="1.1" xmlns="http://www.w3.org/2000/svg" xmlns:xlink="http://www.w3.org/1999/xlink" xml:space="preserve" xmlns:serif="http://www.serif.com/" style="fill-rule:evenodd;clip-rule:evenodd;stroke-linejoin:round;stroke-miterlimit:2;">
    <g id="photo">
        <path d="M32.026,0.96C32.026,0.43 31.596,0 31.066,0L0.986,0C0.456,0 0.026,0.43 0.026,0.96L0.026,31.04C0.026,31.57 0.456,32 0.986,32L31.066,32C31.596,32 32.026,31.57 32.026,31.04L32.026,0.96Z" style="fill:none;"/>
        <g>
            <path d="M32.026,0.96C32.026,0.43 31.596,0 31.066,0L0.986,0C0.456,0 0.026,0.43 0.026,0.96L0.026,31.04C0.026,31.57 0.456,32 0.986,32L31.066,32C31.596,32 32.026,31.57 32.026,31.04L32.026,0.96Z" style="fill:#7e4dd2;"/>
            <path d="M32.026,0.96C32.026,0.43 31.596,0 31.066,0L13.146,0L0.026,22.724L0.026,31.04C0.026,31.57 0.456,32 0.986,32L31.066,32C31.596,32 32.026,31.57 32.026,31.04L32.026,0.96Z" style="fill:#7140c2;"/>
            <path d="M32.427,32.411L20.662,32.414L13.865,20.641L32.444,20.641C32.439,24.563 32.431,28.49 32.427,32.411ZM20.178,32.414L1.624,32.414L10.906,16.355L20.178,32.414ZM1.15,32.414L-0.383,32.414L-0.388,23.999L6.746,11.639L13.146,11.639C9.148,18.564 5.147,25.49 1.15,32.414L1.15,32.414ZM17.413,11.641C18.028,11.649 18.615,11.986 18.931,12.518C19.421,13.359 19.904,14.203 20.391,15.046C20.686,15.564 20.709,16.23 20.419,16.772C20.412,16.785 20.405,16.798 20.397,16.811C19.915,17.656 19.424,18.497 18.938,19.34C18.635,19.86 18.062,20.203 17.457,20.223C17.442,20.223 17.413,20.223 17.413,20.223L14.652,20.223C14.049,20.22 13.464,19.904 13.144,19.39C13.136,19.378 13.128,19.365 13.121,19.352C12.631,18.511 12.148,17.666 11.661,16.823C11.362,16.301 11.348,15.631 11.632,15.097C11.639,15.084 11.647,15.071 11.654,15.058C12.137,14.213 12.627,13.373 13.114,12.53C13.416,12.011 13.99,11.662 14.594,11.642C14.609,11.642 14.624,11.642 14.639,11.641C15.564,11.637 16.488,11.637 17.413,11.641ZM32.44,-0.414L32.44,20.223L18.912,20.223L30.827,-0.414L32.44,-0.414ZM21.146,15.515L12.828,1.109L13.707,-0.414L30.343,-0.414L21.146,15.515ZM18.186,11.224L6.989,11.222L12.586,1.528C14.451,4.759 16.32,7.992 18.186,11.224Z" style="fill:#58328a;fill-rule:nonzero;"/>
            <path d="M0.91,32L0.03,32L0.026,24.11L6.986,12.055L12.426,12.055L0.91,32ZM32.026,21.056L32.026,32L20.901,32L14.582,21.056L32.026,21.056ZM19.461,32L2.341,32L10.906,17.182L19.461,32ZM32.026,19.808L19.629,19.808L31.066,0L32.026,0L32.026,19.808ZM17.401,12.033C17.875,12.035 18.328,12.313 18.573,12.726C18.576,12.73 18.581,12.738 18.581,12.738L20.019,15.23C20.019,15.23 20.027,15.244 20.031,15.251C20.266,15.662 20.275,16.18 20.04,16.599C19.558,17.443 19.069,18.282 18.583,19.124C18.344,19.533 17.892,19.8 17.412,19.806C16.496,19.81 14.659,19.808 14.657,19.808C14.183,19.806 13.722,19.553 13.477,19.14C13.471,19.131 13.461,19.113 13.461,19.113C13.461,19.113 12.022,16.621 12.019,16.616C11.784,16.204 11.784,15.673 12.019,15.254L12.029,15.236C12.029,15.236 12.992,13.565 13.475,12.729C13.713,12.32 14.166,12.038 14.646,12.032C14.654,12.032 14.67,12.032 14.67,12.032L17.384,12.033L17.401,12.033ZM13.946,0L29.626,0L21.146,14.688L13.306,1.109L13.946,0ZM17.466,10.808L7.706,10.808L12.586,2.356L17.466,10.808Z" style="fill:#f582ff;"/>
            <path d="M19.461,32L19.017,32L10.906,17.95L2.785,32L2.341,32L10.906,17.182L19.461,32ZM32.026,21.056L32.026,21.44L15.247,21.44L21.344,32L20.901,32L14.582,21.056L32.026,21.056ZM0.912,31.997C0.776,31.987 0.647,31.948 0.533,31.886L11.761,12.439L7.207,12.439L0.026,24.878L0.026,24.11L6.986,12.055L12.426,12.055L0.912,31.997ZM17.384,12.033L17.631,12.055L17.885,12.131L18.138,12.267L18.353,12.444L18.531,12.659L18.581,12.738L20.058,15.299L20.156,15.544L20.205,15.791L20.208,16.042L20.171,16.27L20.1,16.479L19.404,17.705L18.504,19.244L18.343,19.425L18.126,19.593L17.869,19.72L17.602,19.79L16.596,19.808L14.535,19.802L14.264,19.749L14.029,19.654L13.824,19.526L13.644,19.363L13.516,19.202L13.461,19.113L11.992,16.567L11.911,16.373L11.855,16.125L11.844,15.871L11.872,15.651L11.955,15.385L12.029,15.236L13.528,12.645L13.675,12.464L13.886,12.284L14.127,12.147L14.369,12.066L14.623,12.033L14.67,12.032L17.384,12.033ZM31.066,0L19.629,19.808L32.026,19.808L32.026,19.424L20.295,19.424L31.46,0.085C31.34,0.03 31.206,0 31.066,0L31.066,0ZM14.668,12.416L14.495,12.432L14.32,12.483L14.175,12.554L14.011,12.674L13.898,12.791L13.806,12.923L12.321,15.506L12.261,15.673L12.232,15.832L12.228,15.994L12.249,16.154L12.301,16.32L12.352,16.425L13.836,18.991L13.947,19.125L14.094,19.247L14.27,19.343L14.453,19.401L14.643,19.424L17.479,19.419L17.667,19.383L17.845,19.312L18,19.213L18.135,19.089L18.247,18.937L19.738,16.347L19.793,16.199L19.823,16.036L19.827,15.886L19.807,15.729L19.753,15.555L19.686,15.422L18.213,12.874L18.076,12.71L17.917,12.581L17.747,12.489L17.574,12.435L17.407,12.417L14.668,12.416ZM29.626,0L21.146,14.688L13.306,1.109L13.946,0L14.389,0L13.749,1.109L21.146,13.92L29.182,0L29.626,0ZM17.466,10.808L7.706,10.808L12.586,2.356L17.466,10.808ZM8.371,10.424L16.801,10.424L12.586,3.124L8.371,10.424Z" style="fill:#f7b3ff;"/>
        </g>
    </g>
</svg>
