<?xml version="1.0" encoding="UTF-8" standalone="no"?>
<!DOCTYPE svg PUBLIC "-//W3C//DTD SVG 1.1//EN" "http://www.w3.org/Graphics/SVG/1.1/DTD/svg11.dtd">
<svg width="100%" height="100%" viewBox="0 0 32 32" version="1.1" xmlns="http://www.w3.org/2000/svg" xmlns:xlink="http://www.w3.org/1999/xlink" xml:space="preserve" xmlns:serif="http://www.serif.com/" style="fill-rule:evenodd;clip-rule:evenodd;stroke-linejoin:round;stroke-miterlimit:2;">
    <g id="photo">
        <path d="M32,0.96C32,0.43 31.57,0 31.04,0L0.96,0C0.43,0 -0,0.43 -0,0.96L-0,31.04C-0,31.57 0.43,32 0.96,32L31.04,32C31.57,32 32,31.57 32,31.04L32,0.96Z" style="fill:none;"/>
        <g>
            <clipPath id="_clip1">
                <path d="M32,0.96C32,0.43 31.57,0 31.04,0L0.96,0C0.43,0 -0,0.43 -0,0.96L-0,31.04C-0,31.57 0.43,32 0.96,32L31.04,32C31.57,32 32,31.57 32,31.04L32,0.96Z"/>
            </clipPath>
            <g clip-path="url(#_clip1)">
                <path d="M32,0.96C32,0.43 31.57,0 31.04,0L0.96,0C0.43,0 -0,0.43 -0,0.96L-0,31.04C-0,31.57 0.43,32 0.96,32L31.04,32C31.57,32 32,31.57 32,31.04L32,0.96Z" style="fill:#7e4dd2;"/>
                <path d="M32,0.96C32,0.43 31.57,0 31.04,0L13.12,0L-0,22.724L-0,31.04C-0,31.57 0.43,32 0.96,32L31.04,32C31.57,32 32,31.57 32,31.04L32,0.96Z" style="fill:#7140c2;"/>
                <path d="M32.401,32.411L20.636,32.414L13.839,20.641L32.418,20.641C32.413,24.563 32.405,28.49 32.401,32.411ZM20.152,32.414L1.598,32.414L10.88,16.355L20.152,32.414ZM1.124,32.414L-0.409,32.414L-0.414,23.999L6.72,11.639L13.12,11.639C9.122,18.564 5.121,25.49 1.124,32.414L1.124,32.414ZM17.387,11.641C18.002,11.649 18.589,11.986 18.905,12.518C19.395,13.359 19.878,14.203 20.365,15.046C20.66,15.564 20.683,16.23 20.393,16.772C20.386,16.785 20.379,16.798 20.372,16.811C19.889,17.656 19.398,18.497 18.912,19.34C18.609,19.86 18.036,20.203 17.431,20.223C17.416,20.223 17.387,20.223 17.387,20.223L14.626,20.223C14.023,20.22 13.438,19.904 13.118,19.39C13.11,19.378 13.102,19.365 13.095,19.352C12.605,18.511 12.122,17.666 11.635,16.823C11.336,16.301 11.322,15.631 11.606,15.097C11.613,15.084 11.621,15.071 11.628,15.058C12.111,14.213 12.601,13.373 13.088,12.53C13.39,12.011 13.964,11.662 14.568,11.642C14.583,11.642 14.598,11.642 14.613,11.641C15.538,11.637 16.462,11.637 17.387,11.641ZM32.414,-0.414L32.414,20.223L18.886,20.223L30.801,-0.414L32.414,-0.414ZM21.12,15.515L12.802,1.109L13.681,-0.414L30.317,-0.414L21.12,15.515ZM18.16,11.224L6.963,11.222L12.56,1.528C14.425,4.759 16.294,7.992 18.16,11.224Z" style="fill:#58328a;fill-rule:nonzero;"/>
                <path d="M0.884,32L0.004,32L-0,24.11L6.96,12.055L12.4,12.055L0.884,32ZM32,21.056L32,32L20.875,32L14.556,21.056L32,21.056ZM19.435,32L2.315,32L10.88,17.182L19.435,32ZM32,19.808L19.604,19.808L31.04,0L32,0L32,19.808ZM17.375,12.033C17.849,12.035 18.302,12.313 18.547,12.726C18.55,12.73 18.555,12.738 18.555,12.738L19.993,15.23C19.993,15.23 20.001,15.244 20.005,15.251C20.24,15.662 20.249,16.18 20.014,16.599C19.532,17.443 19.043,18.282 18.557,19.124C18.318,19.533 17.866,19.8 17.386,19.806C16.47,19.81 14.633,19.808 14.631,19.808C14.157,19.806 13.696,19.553 13.451,19.14C13.445,19.131 13.435,19.113 13.435,19.113C13.435,19.113 11.996,16.621 11.993,16.616C11.758,16.204 11.758,15.673 11.993,15.254L12.004,15.236C12.004,15.236 12.966,13.565 13.449,12.729C13.687,12.32 14.14,12.038 14.62,12.032C14.628,12.032 14.644,12.032 14.644,12.032L17.358,12.033L17.375,12.033ZM13.92,0L29.6,0L21.12,14.688L13.28,1.109L13.92,0ZM17.44,10.808L7.68,10.808L12.56,2.356L17.44,10.808Z" style="fill:url(#_Radial2);"/>
                <path d="M0.118,33.327L-0.746,33.299L-0.735,25.383L6.96,12.055L12.4,12.055L0.118,33.327ZM20.155,33.247L1.653,33.146L10.88,17.182L20.155,33.247ZM32.681,33.199L21.524,33.124L14.556,21.056L32.723,21.056L32.681,33.199ZM7.181,12.439L-0.352,25.487L-0.361,32.928L-0.099,32.936L11.735,12.439L7.181,12.439ZM2.316,32.765L19.488,32.859L10.88,17.95L2.316,32.765ZM15.221,21.44L21.747,32.741L32.298,32.813L32.338,21.44L15.221,21.44ZM17.358,12.033L17.375,12.033L17.38,12.033L17.386,12.033L17.391,12.033L17.397,12.033L17.408,12.033L17.413,12.033L17.419,12.034L17.43,12.034L17.436,12.034L17.441,12.035L17.452,12.035L17.458,12.036L17.463,12.036L17.474,12.037L17.48,12.037L17.491,12.039L17.502,12.04L17.508,12.04L17.513,12.041L17.524,12.042L17.535,12.044L17.546,12.045L17.551,12.046L17.562,12.048L17.573,12.049L17.584,12.051L17.595,12.053L17.605,12.055L17.616,12.057L17.627,12.06L17.638,12.062L17.649,12.064L17.66,12.067L17.67,12.069L17.681,12.072L17.692,12.075L17.702,12.078L17.713,12.081L17.724,12.084L17.734,12.087L17.745,12.09L17.755,12.093L17.765,12.097L17.776,12.1L17.787,12.104L17.797,12.107L17.807,12.111L17.818,12.115L17.828,12.119L17.838,12.123L17.849,12.127L17.859,12.131L17.869,12.135L17.879,12.14L17.889,12.144L17.9,12.148L17.909,12.153L17.92,12.158L17.93,12.162L17.94,12.167L17.949,12.172L17.959,12.177L17.969,12.182L17.979,12.187L17.989,12.192L17.999,12.198L18.008,12.203L18.018,12.208L18.028,12.214L18.037,12.219L18.047,12.225L18.056,12.231L18.066,12.237L18.075,12.243L18.084,12.248L18.094,12.255L18.103,12.261L18.112,12.267L18.122,12.273L18.131,12.279L18.14,12.286L18.149,12.292L18.158,12.299L18.167,12.305L18.176,12.312L18.185,12.319L18.193,12.326L18.202,12.332L18.211,12.339L18.22,12.346L18.228,12.354L18.237,12.361L18.245,12.368L18.254,12.375L18.262,12.383L18.27,12.39L18.279,12.397L18.287,12.405L18.295,12.413L18.303,12.42L18.311,12.428L18.319,12.436L18.327,12.444L18.335,12.452L18.343,12.46L18.351,12.468L18.358,12.476L18.366,12.484L18.373,12.492L18.381,12.5L18.388,12.509L18.396,12.517L18.403,12.526L18.411,12.534L18.418,12.543L18.425,12.551L18.432,12.56L18.439,12.569L18.446,12.578L18.453,12.586L18.46,12.595L18.466,12.604L18.48,12.622L18.486,12.632L18.492,12.641L18.499,12.65L18.505,12.659L18.511,12.669L18.517,12.678L18.524,12.687L18.53,12.697L18.536,12.707L18.541,12.716L18.547,12.726L18.555,12.738L19.993,15.23L20.005,15.251L20.011,15.26L20.016,15.27L20.021,15.28L20.026,15.29L20.032,15.299L20.036,15.309L20.042,15.319L20.046,15.329L20.051,15.339L20.056,15.349L20.06,15.359L20.065,15.369L20.07,15.379L20.074,15.389L20.078,15.399L20.083,15.41L20.087,15.42L20.091,15.43L20.099,15.451L20.106,15.471L20.11,15.482L20.113,15.492L20.12,15.513L20.124,15.523L20.127,15.534L20.13,15.544L20.133,15.555L20.136,15.565L20.139,15.576L20.141,15.587L20.144,15.597L20.152,15.629L20.154,15.64L20.156,15.651L20.159,15.661L20.161,15.672L20.163,15.683L20.167,15.704L20.168,15.715L20.17,15.726L20.172,15.737L20.173,15.748L20.175,15.758L20.176,15.769L20.177,15.78L20.179,15.791L20.18,15.802L20.18,15.813L20.181,15.824L20.182,15.835L20.184,15.867L20.185,15.878L20.185,15.889L20.186,15.911L20.186,15.955L20.186,15.966L20.186,15.977L20.185,15.988L20.185,15.999L20.184,16.01L20.183,16.02L20.182,16.042L20.179,16.075L20.178,16.086L20.175,16.108L20.174,16.119L20.172,16.129L20.169,16.151L20.167,16.162L20.166,16.173L20.164,16.184L20.162,16.194L20.16,16.205L20.157,16.216L20.155,16.227L20.153,16.237L20.15,16.248L20.148,16.259L20.145,16.27L20.14,16.291L20.134,16.312L20.131,16.323L20.128,16.333L20.124,16.344L20.121,16.354L20.114,16.375L20.11,16.386L20.107,16.396L20.103,16.407L20.099,16.417L20.095,16.427L20.091,16.438L20.087,16.448L20.083,16.458L20.078,16.469L20.074,16.479L20.069,16.489L20.065,16.499L20.06,16.509L20.056,16.519L20.051,16.529L20.046,16.54L20.041,16.55L20.036,16.559L20.03,16.569L20.025,16.579L20.014,16.599L19.969,16.678L19.924,16.757L19.879,16.836L19.833,16.915L19.697,17.152L19.606,17.31L19.561,17.389L19.469,17.547L19.378,17.705L19.287,17.862L19.196,18.02L19.104,18.178L18.922,18.493L18.83,18.651L18.648,18.966L18.557,19.124L18.551,19.133L18.545,19.143L18.54,19.152L18.534,19.162L18.528,19.171L18.522,19.181L18.516,19.19L18.509,19.199L18.503,19.208L18.497,19.217L18.491,19.226L18.484,19.235L18.478,19.244L18.471,19.253L18.464,19.262L18.458,19.271L18.451,19.279L18.444,19.288L18.437,19.296L18.43,19.305L18.423,19.313L18.416,19.322L18.409,19.33L18.401,19.338L18.394,19.347L18.387,19.355L18.379,19.363L18.372,19.371L18.364,19.379L18.356,19.387L18.348,19.395L18.341,19.402L18.333,19.41L18.325,19.418L18.317,19.425L18.309,19.433L18.301,19.44L18.293,19.448L18.284,19.455L18.276,19.462L18.268,19.47L18.26,19.477L18.251,19.484L18.243,19.491L18.234,19.498L18.226,19.505L18.217,19.511L18.208,19.518L18.199,19.525L18.19,19.531L18.182,19.538L18.173,19.544L18.164,19.551L18.155,19.557L18.146,19.563L18.137,19.569L18.127,19.576L18.118,19.582L18.109,19.588L18.1,19.593L18.09,19.599L18.081,19.605L18.072,19.611L18.062,19.616L18.052,19.622L18.043,19.627L18.033,19.633L18.024,19.638L18.014,19.643L18.004,19.648L17.995,19.653L17.985,19.658L17.975,19.663L17.965,19.668L17.955,19.673L17.945,19.678L17.935,19.682L17.925,19.687L17.915,19.691L17.905,19.696L17.894,19.7L17.884,19.704L17.874,19.708L17.864,19.712L17.853,19.716L17.843,19.72L17.833,19.724L17.822,19.728L17.812,19.731L17.802,19.735L17.791,19.739L17.78,19.742L17.77,19.745L17.759,19.748L17.749,19.752L17.738,19.755L17.727,19.758L17.717,19.761L17.706,19.763L17.695,19.766L17.684,19.769L17.674,19.771L17.663,19.774L17.652,19.776L17.641,19.778L17.63,19.781L17.62,19.783L17.609,19.785L17.597,19.787L17.587,19.789L17.576,19.79L17.564,19.792L17.554,19.794L17.542,19.795L17.532,19.797L17.52,19.798L17.509,19.799L17.498,19.8L17.487,19.801L17.476,19.802L17.465,19.803L17.453,19.804L17.442,19.804L17.431,19.805L17.42,19.805L17.409,19.806L17.397,19.806L17.386,19.806L17.298,19.807L17.204,19.807L17.107,19.807L17.005,19.807L16.9,19.808L16.792,19.808L16.682,19.808L16.57,19.808L16.342,19.808L16.112,19.809L15.886,19.809L15.666,19.809L15.457,19.809L15.262,19.808L15.086,19.808L14.933,19.808L14.712,19.808L14.631,19.808L14.62,19.808L14.609,19.808L14.597,19.807L14.586,19.807L14.575,19.807L14.564,19.806L14.553,19.805L14.542,19.805L14.531,19.804L14.52,19.803L14.509,19.802L14.498,19.801L14.487,19.8L14.476,19.798L14.465,19.797L14.454,19.796L14.443,19.794L14.432,19.793L14.421,19.791L14.41,19.789L14.399,19.787L14.388,19.785L14.378,19.783L14.367,19.781L14.356,19.779L14.345,19.777L14.334,19.774L14.324,19.772L14.313,19.769L14.302,19.766L14.292,19.764L14.281,19.761L14.27,19.758L14.26,19.755L14.249,19.752L14.238,19.749L14.228,19.746L14.218,19.742L14.207,19.739L14.196,19.735L14.186,19.732L14.176,19.728L14.165,19.725L14.155,19.721L14.145,19.717L14.134,19.713L14.124,19.709L14.114,19.705L14.104,19.701L14.093,19.696L14.084,19.692L14.073,19.687L14.063,19.683L14.053,19.678L14.043,19.674L14.033,19.669L14.023,19.664L14.013,19.659L14.004,19.654L13.994,19.649L13.984,19.644L13.974,19.639L13.965,19.634L13.955,19.628L13.946,19.623L13.936,19.617L13.926,19.612L13.917,19.606L13.908,19.6L13.898,19.595L13.889,19.589L13.879,19.583L13.87,19.577L13.861,19.571L13.852,19.564L13.843,19.558L13.834,19.552L13.825,19.545L13.816,19.539L13.807,19.533L13.798,19.526L13.789,19.519L13.78,19.513L13.772,19.506L13.763,19.499L13.755,19.492L13.746,19.485L13.738,19.478L13.729,19.471L13.721,19.463L13.713,19.456L13.704,19.449L13.696,19.441L13.688,19.434L13.68,19.426L13.672,19.419L13.664,19.411L13.656,19.403L13.648,19.395L13.641,19.387L13.633,19.379L13.625,19.371L13.618,19.363L13.61,19.355L13.603,19.347L13.595,19.339L13.588,19.33L13.581,19.322L13.573,19.313L13.566,19.305L13.559,19.296L13.552,19.288L13.546,19.279L13.539,19.27L13.532,19.261L13.525,19.252L13.519,19.243L13.512,19.234L13.506,19.225L13.499,19.216L13.493,19.207L13.49,19.202L13.487,19.197L13.484,19.193L13.48,19.188L13.477,19.183L13.474,19.179L13.471,19.174L13.468,19.169L13.465,19.164L13.462,19.16L13.457,19.15L13.453,19.145L13.451,19.14L13.435,19.113L11.993,16.616L11.99,16.611L11.988,16.606L11.985,16.601L11.982,16.596L11.977,16.586L11.972,16.577L11.966,16.567L11.962,16.557L11.956,16.547L11.952,16.537L11.947,16.527L11.942,16.517L11.933,16.497L11.929,16.487L11.924,16.477L11.92,16.466L11.916,16.456L11.912,16.446L11.908,16.436L11.904,16.425L11.9,16.415L11.896,16.404L11.892,16.394L11.889,16.384L11.885,16.373L11.882,16.362L11.879,16.352L11.872,16.331L11.867,16.31L11.861,16.288L11.858,16.277L11.853,16.256L11.851,16.245L11.848,16.234L11.846,16.224L11.844,16.213L11.842,16.202L11.839,16.191L11.837,16.18L11.836,16.169L11.834,16.158L11.831,16.136L11.829,16.125L11.827,16.103L11.824,16.081L11.823,16.07L11.822,16.059L11.821,16.048L11.82,16.037L11.819,16.015L11.818,16.004L11.818,15.993L11.818,15.982L11.817,15.96L11.817,15.949L11.817,15.938L11.817,15.926L11.817,15.915L11.817,15.904L11.818,15.882L11.818,15.871L11.819,15.86L11.82,15.849L11.82,15.838L11.823,15.805L11.824,15.794L11.829,15.749L11.832,15.727L11.834,15.716L11.838,15.694L11.842,15.673L11.844,15.662L11.846,15.651L11.848,15.64L11.851,15.629L11.856,15.607L11.861,15.586L11.864,15.575L11.869,15.553L11.873,15.543L11.879,15.521L11.882,15.511L11.889,15.489L11.896,15.468L11.904,15.447L11.908,15.437L11.916,15.416L11.92,15.406L11.924,15.395L11.929,15.385L11.938,15.364L11.942,15.354L11.947,15.344L11.952,15.334L11.956,15.324L11.962,15.314L11.967,15.304L11.972,15.294L11.977,15.284L11.982,15.274L11.988,15.264L11.993,15.254L12.004,15.236L12.162,14.961L12.334,14.663L12.545,14.296L12.78,13.889L13.02,13.473L13.248,13.077L13.353,12.895L13.449,12.729L13.454,12.72L13.46,12.71L13.466,12.701L13.472,12.691L13.478,12.682L13.484,12.672L13.49,12.663L13.496,12.654L13.502,12.645L13.508,12.636L13.521,12.618L13.528,12.609L13.534,12.6L13.541,12.591L13.548,12.582L13.555,12.573L13.562,12.564L13.569,12.556L13.576,12.547L13.583,12.539L13.59,12.53L13.597,12.522L13.604,12.513L13.612,12.505L13.619,12.497L13.627,12.489L13.634,12.48L13.642,12.472L13.649,12.464L13.657,12.456L13.665,12.448L13.673,12.441L13.681,12.433L13.689,12.425L13.697,12.417L13.705,12.41L13.713,12.402L13.721,12.395L13.729,12.387L13.738,12.38L13.746,12.373L13.755,12.365L13.763,12.358L13.772,12.351L13.78,12.344L13.789,12.337L13.797,12.33L13.806,12.324L13.815,12.317L13.824,12.31L13.833,12.303L13.842,12.297L13.851,12.29L13.86,12.284L13.869,12.278L13.878,12.271L13.887,12.265L13.897,12.259L13.906,12.253L13.916,12.247L13.925,12.241L13.934,12.235L13.944,12.229L13.953,12.224L13.963,12.218L13.972,12.213L13.982,12.207L13.992,12.202L14.002,12.196L14.012,12.191L14.021,12.186L14.031,12.181L14.041,12.176L14.051,12.171L14.061,12.166L14.071,12.161L14.081,12.157L14.091,12.152L14.101,12.147L14.111,12.143L14.122,12.139L14.132,12.134L14.142,12.13L14.152,12.126L14.163,12.122L14.173,12.118L14.184,12.114L14.194,12.11L14.204,12.107L14.215,12.103L14.226,12.099L14.236,12.096L14.247,12.093L14.257,12.089L14.268,12.086L14.278,12.083L14.289,12.08L14.3,12.077L14.311,12.074L14.322,12.071L14.332,12.069L14.343,12.066L14.354,12.064L14.365,12.061L14.376,12.059L14.387,12.057L14.397,12.055L14.409,12.053L14.42,12.051L14.43,12.049L14.442,12.047L14.447,12.046L14.458,12.045L14.464,12.044L14.475,12.042L14.48,12.042L14.486,12.041L14.491,12.04L14.497,12.04L14.508,12.039L14.514,12.038L14.524,12.037L14.53,12.037L14.536,12.036L14.541,12.036L14.547,12.035L14.553,12.035L14.558,12.035L14.564,12.034L14.569,12.034L14.575,12.034L14.58,12.033L14.586,12.033L14.592,12.033L14.597,12.033L14.603,12.033L14.609,12.032L14.614,12.032L14.62,12.032L14.627,12.032L14.635,12.032L14.644,12.032L17.358,12.033ZM32.66,19.808L19.604,19.808L31.699,-1.142L32.694,-1.203L32.66,19.808ZM14.642,12.416L14.632,12.416L14.625,12.416L14.617,12.416L14.613,12.416L14.601,12.417L14.597,12.417L14.594,12.417L14.589,12.417L14.582,12.418L14.574,12.418L14.57,12.419L14.566,12.419L14.562,12.419L14.551,12.42L14.547,12.421L14.539,12.421L14.531,12.422L14.527,12.423L14.523,12.423L14.516,12.424L14.508,12.425L14.504,12.426L14.5,12.427L14.492,12.428L14.484,12.429L14.477,12.431L14.469,12.432L14.461,12.433L14.453,12.435L14.446,12.437L14.438,12.438L14.43,12.44L14.423,12.442L14.415,12.444L14.407,12.446L14.4,12.448L14.392,12.45L14.385,12.452L14.377,12.454L14.369,12.457L14.362,12.459L14.354,12.461L14.347,12.464L14.339,12.466L14.332,12.469L14.324,12.472L14.316,12.474L14.309,12.477L14.301,12.48L14.294,12.483L14.286,12.486L14.279,12.489L14.264,12.495L14.257,12.499L14.25,12.502L14.242,12.505L14.235,12.509L14.228,12.512L14.22,12.516L14.213,12.519L14.206,12.523L14.199,12.527L14.191,12.53L14.184,12.534L14.177,12.538L14.17,12.542L14.163,12.546L14.156,12.55L14.149,12.554L14.142,12.558L14.135,12.563L14.128,12.567L14.121,12.571L14.114,12.576L14.108,12.58L14.101,12.585L14.094,12.589L14.087,12.594L14.081,12.598L14.067,12.608L14.061,12.613L14.054,12.617L14.048,12.622L14.041,12.627L14.035,12.632L14.028,12.637L14.022,12.643L14.016,12.648L14.009,12.653L14.003,12.658L13.997,12.663L13.991,12.669L13.985,12.674L13.972,12.685L13.967,12.691L13.961,12.696L13.955,12.702L13.949,12.708L13.937,12.719L13.932,12.725L13.926,12.731L13.92,12.736L13.915,12.742L13.909,12.748L13.904,12.754L13.893,12.766L13.888,12.773L13.883,12.779L13.877,12.785L13.872,12.791L13.867,12.797L13.862,12.804L13.857,12.81L13.852,12.816L13.847,12.823L13.837,12.836L13.833,12.842L13.828,12.849L13.824,12.855L13.819,12.862L13.814,12.868L13.81,12.875L13.806,12.882L13.801,12.889L13.797,12.895L13.793,12.902L13.789,12.909L13.785,12.916L13.78,12.923L13.686,13.087L13.581,13.269L13.352,13.665L13.112,14.081L12.878,14.487L12.667,14.855L12.494,15.153L12.337,15.427L12.328,15.443L12.324,15.449L12.316,15.463L12.313,15.47L12.309,15.477L12.306,15.484L12.299,15.499L12.295,15.506L12.292,15.513L12.288,15.521L12.285,15.528L12.282,15.535L12.279,15.543L12.276,15.55L12.273,15.558L12.27,15.565L12.267,15.573L12.264,15.58L12.261,15.588L12.259,15.595L12.256,15.603L12.253,15.611L12.251,15.618L12.249,15.626L12.246,15.634L12.244,15.642L12.242,15.649L12.239,15.657L12.235,15.673L12.233,15.681L12.231,15.688L12.229,15.696L12.227,15.704L12.226,15.712L12.224,15.72L12.22,15.736L12.219,15.744L12.218,15.752L12.216,15.76L12.215,15.768L12.213,15.776L12.212,15.784L12.211,15.792L12.21,15.8L12.209,15.808L12.208,15.816L12.206,15.832L12.205,15.84L12.204,15.849L12.204,15.857L12.203,15.865L12.203,15.873L12.202,15.881L12.202,15.889L12.202,15.897L12.201,15.905L12.201,15.913L12.201,15.93L12.201,15.938L12.201,15.946L12.201,15.962L12.201,15.97L12.202,15.978L12.202,15.994L12.203,16.002L12.203,16.011L12.204,16.027L12.205,16.035L12.207,16.051L12.208,16.059L12.209,16.067L12.21,16.075L12.211,16.083L12.212,16.091L12.213,16.099L12.214,16.107L12.216,16.114L12.217,16.122L12.219,16.13L12.22,16.138L12.223,16.154L12.225,16.162L12.227,16.169L12.229,16.177L12.231,16.185L12.233,16.193L12.235,16.2L12.237,16.208L12.239,16.216L12.243,16.231L12.246,16.238L12.248,16.246L12.251,16.253L12.253,16.261L12.255,16.268L12.258,16.276L12.261,16.283L12.263,16.291L12.269,16.305L12.272,16.313L12.275,16.32L12.278,16.327L12.281,16.334L12.284,16.342L12.287,16.349L12.291,16.356L12.294,16.363L12.297,16.37L12.301,16.377L12.304,16.384L12.311,16.398L12.315,16.405L12.317,16.408L12.321,16.415L12.324,16.422L12.326,16.425L13.767,18.921L13.781,18.945L13.783,18.948L13.785,18.951L13.787,18.954L13.789,18.958L13.791,18.961L13.793,18.964L13.795,18.968L13.797,18.971L13.802,18.978L13.804,18.981L13.806,18.984L13.808,18.988L13.81,18.991L13.815,18.997L13.82,19.004L13.824,19.01L13.829,19.017L13.833,19.023L13.838,19.029L13.843,19.036L13.848,19.042L13.853,19.048L13.858,19.054L13.863,19.06L13.868,19.067L13.878,19.079L13.883,19.085L13.888,19.09L13.894,19.096L13.899,19.102L13.905,19.108L13.91,19.114L13.916,19.119L13.921,19.125L13.927,19.131L13.932,19.136L13.938,19.142L13.944,19.147L13.949,19.153L13.956,19.158L13.961,19.163L13.967,19.169L13.973,19.174L13.979,19.179L13.985,19.184L13.991,19.189L13.997,19.194L14.004,19.199L14.01,19.204L14.016,19.209L14.022,19.214L14.029,19.219L14.035,19.224L14.042,19.229L14.048,19.233L14.055,19.238L14.061,19.242L14.068,19.247L14.075,19.251L14.081,19.256L14.088,19.26L14.095,19.265L14.101,19.269L14.108,19.273L14.115,19.277L14.122,19.281L14.129,19.285L14.136,19.289L14.143,19.293L14.15,19.297L14.157,19.301L14.164,19.305L14.171,19.309L14.178,19.312L14.185,19.316L14.193,19.319L14.2,19.323L14.207,19.326L14.214,19.33L14.222,19.333L14.236,19.34L14.244,19.343L14.251,19.346L14.259,19.349L14.266,19.352L14.274,19.355L14.281,19.358L14.289,19.361L14.296,19.363L14.304,19.366L14.311,19.369L14.319,19.371L14.326,19.374L14.334,19.376L14.342,19.379L14.349,19.381L14.357,19.383L14.365,19.386L14.372,19.388L14.38,19.39L14.388,19.392L14.396,19.394L14.404,19.396L14.412,19.398L14.419,19.4L14.427,19.401L14.435,19.403L14.443,19.405L14.451,19.406L14.458,19.408L14.466,19.409L14.474,19.41L14.482,19.412L14.49,19.413L14.498,19.414L14.506,19.415L14.514,19.416L14.521,19.417L14.529,19.418L14.537,19.419L14.545,19.42L14.553,19.42L14.561,19.421L14.569,19.422L14.577,19.422L14.585,19.423L14.593,19.423L14.601,19.423L14.609,19.424L14.617,19.424L14.624,19.424L14.633,19.424L14.713,19.424L14.934,19.424L15.087,19.424L15.262,19.424L15.457,19.425L15.666,19.425L15.886,19.425L16.112,19.425L16.341,19.424L16.569,19.424L16.681,19.424L16.791,19.424L16.899,19.424L17.004,19.423L17.106,19.423L17.203,19.423L17.296,19.423L17.382,19.422L17.389,19.422L17.397,19.422L17.405,19.422L17.413,19.421L17.421,19.421L17.429,19.421L17.437,19.42L17.445,19.419L17.453,19.419L17.461,19.418L17.469,19.417L17.477,19.416L17.485,19.415L17.493,19.414L17.5,19.413L17.508,19.412L17.516,19.411L17.524,19.41L17.532,19.408L17.54,19.407L17.548,19.405L17.556,19.404L17.564,19.402L17.571,19.401L17.579,19.399L17.587,19.397L17.595,19.395L17.602,19.394L17.61,19.392L17.618,19.39L17.626,19.387L17.633,19.385L17.641,19.383L17.649,19.381L17.656,19.378L17.664,19.376L17.671,19.374L17.679,19.371L17.686,19.369L17.694,19.366L17.701,19.363L17.709,19.36L17.716,19.358L17.724,19.355L17.739,19.349L17.746,19.346L17.754,19.343L17.761,19.339L17.768,19.336L17.776,19.333L17.783,19.33L17.79,19.326L17.797,19.323L17.804,19.319L17.812,19.316L17.819,19.312L17.826,19.308L17.833,19.304L17.84,19.301L17.847,19.297L17.854,19.293L17.868,19.285L17.875,19.281L17.882,19.277L17.889,19.273L17.896,19.268L17.902,19.264L17.909,19.26L17.916,19.255L17.922,19.251L17.936,19.242L17.942,19.237L17.948,19.233L17.955,19.228L17.962,19.223L17.968,19.218L17.974,19.213L17.98,19.209L17.987,19.204L17.993,19.199L17.999,19.194L18.005,19.189L18.012,19.183L18.018,19.178L18.024,19.173L18.03,19.168L18.036,19.162L18.042,19.157L18.047,19.152L18.053,19.146L18.059,19.141L18.07,19.13L18.076,19.124L18.082,19.118L18.087,19.113L18.092,19.107L18.098,19.101L18.103,19.095L18.109,19.089L18.114,19.084L18.119,19.078L18.124,19.072L18.13,19.066L18.135,19.06L18.14,19.053L18.145,19.047L18.149,19.041L18.155,19.035L18.159,19.029L18.164,19.022L18.169,19.016L18.173,19.01L18.178,19.003L18.182,18.997L18.187,18.99L18.191,18.984L18.196,18.977L18.2,18.971L18.204,18.964L18.209,18.957L18.213,18.951L18.217,18.944L18.221,18.937L18.225,18.93L18.316,18.774L18.407,18.616L18.498,18.458L18.589,18.301L18.772,17.985L18.863,17.828L18.955,17.67L19.046,17.512L19.137,17.355L19.228,17.197L19.273,17.118L19.319,17.039L19.364,16.961L19.455,16.803L19.5,16.724L19.546,16.645L19.591,16.566L19.636,16.487L19.68,16.41L19.684,16.404L19.687,16.397L19.691,16.39L19.695,16.383L19.705,16.362L19.709,16.355L19.712,16.347L19.716,16.34L19.722,16.326L19.725,16.319L19.728,16.311L19.731,16.304L19.734,16.297L19.737,16.289L19.74,16.282L19.742,16.274L19.745,16.267L19.748,16.26L19.753,16.245L19.755,16.237L19.758,16.23L19.76,16.222L19.767,16.199L19.769,16.192L19.772,16.176L19.774,16.169L19.776,16.161L19.778,16.153L19.78,16.146L19.781,16.138L19.783,16.13L19.785,16.122L19.786,16.115L19.788,16.099L19.791,16.083L19.792,16.076L19.793,16.068L19.794,16.06L19.795,16.052L19.796,16.044L19.797,16.036L19.798,16.029L19.799,16.013L19.8,16.005L19.8,15.997L19.801,15.989L19.802,15.958L19.802,15.918L19.802,15.91L19.802,15.902L19.801,15.894L19.801,15.886L19.8,15.878L19.8,15.87L19.799,15.863L19.799,15.855L19.797,15.839L19.796,15.831L19.796,15.823L19.794,15.807L19.793,15.8L19.792,15.792L19.79,15.784L19.789,15.776L19.788,15.768L19.787,15.76L19.785,15.753L19.782,15.737L19.781,15.729L19.779,15.722L19.777,15.714L19.775,15.706L19.774,15.698L19.772,15.691L19.77,15.683L19.768,15.675L19.766,15.668L19.759,15.645L19.757,15.637L19.755,15.63L19.752,15.622L19.744,15.6L19.741,15.592L19.739,15.585L19.733,15.57L19.73,15.563L19.727,15.555L19.724,15.548L19.721,15.541L19.718,15.533L19.715,15.526L19.712,15.519L19.708,15.512L19.705,15.505L19.701,15.497L19.694,15.483L19.691,15.476L19.687,15.469L19.679,15.455L19.676,15.448L19.672,15.441L19.66,15.422L18.222,12.931L18.217,12.921L18.213,12.915L18.209,12.908L18.204,12.901L18.2,12.894L18.196,12.887L18.187,12.874L18.182,12.867L18.177,12.86L18.168,12.847L18.163,12.84L18.158,12.834L18.153,12.827L18.148,12.82L18.143,12.814L18.138,12.807L18.133,12.801L18.128,12.795L18.123,12.788L18.117,12.782L18.112,12.776L18.107,12.77L18.096,12.757L18.09,12.751L18.084,12.745L18.079,12.739L18.073,12.733L18.068,12.727L18.062,12.721L18.056,12.715L18.05,12.71L18.044,12.704L18.038,12.698L18.032,12.693L18.026,12.687L18.014,12.676L18.008,12.67L18.002,12.665L17.996,12.66L17.989,12.654L17.983,12.649L17.977,12.644L17.97,12.639L17.964,12.634L17.957,12.629L17.951,12.623L17.944,12.619L17.938,12.614L17.931,12.609L17.924,12.604L17.918,12.599L17.911,12.595L17.905,12.59L17.898,12.585L17.891,12.581L17.884,12.576L17.877,12.572L17.87,12.567L17.864,12.563L17.857,12.559L17.85,12.555L17.843,12.551L17.829,12.542L17.821,12.539L17.807,12.531L17.8,12.527L17.793,12.523L17.786,12.52L17.779,12.516L17.772,12.512L17.764,12.509L17.757,12.506L17.75,12.502L17.742,12.499L17.735,12.496L17.728,12.492L17.721,12.489L17.713,12.486L17.706,12.483L17.698,12.48L17.691,12.477L17.684,12.475L17.676,12.472L17.669,12.469L17.661,12.467L17.654,12.464L17.646,12.462L17.639,12.459L17.631,12.457L17.624,12.455L17.616,12.452L17.609,12.45L17.601,12.448L17.594,12.446L17.586,12.444L17.579,12.442L17.571,12.44L17.563,12.439L17.556,12.437L17.548,12.435L17.54,12.434L17.533,12.432L17.525,12.431L17.518,12.43L17.51,12.428L17.502,12.427L17.494,12.426L17.491,12.425L17.487,12.425L17.484,12.424L17.468,12.422L17.465,12.422L17.457,12.421L17.453,12.421L17.442,12.42L17.438,12.419L17.434,12.419L17.43,12.419L17.423,12.418L17.415,12.418L17.411,12.418L17.407,12.417L17.404,12.417L17.4,12.417L17.396,12.417L17.392,12.417L17.388,12.417L17.381,12.417L17.377,12.417L17.373,12.417L17.358,12.417L14.648,12.416L14.642,12.416ZM31.928,-0.771L20.269,19.424L32.277,19.424L32.31,-0.794L31.928,-0.771ZM21.12,14.688L13.28,1.109L14.529,-1.056L30.249,-1.125L21.12,14.688ZM14.751,-0.673L13.723,1.109L21.12,13.92L29.582,-0.738L14.751,-0.673ZM17.44,10.808L7.68,10.808L12.56,2.356L17.44,10.808ZM8.345,10.424L16.775,10.424L12.56,3.124L8.345,10.424Z" style="fill:url(#_Linear3);"/>
            </g>
        </g>
    </g>
    <defs>
        <radialGradient id="_Radial2" cx="0" cy="0" r="1" gradientUnits="userSpaceOnUse" gradientTransform="matrix(38.0141,0,0,38.014,24.4586,-6.01409)"><stop offset="0" style="stop-color:#f9a6ff;stop-opacity:1"/><stop offset="1" style="stop-color:#ea73ff;stop-opacity:1"/></radialGradient>
        <linearGradient id="_Linear3" x1="0" y1="0" x2="1" y2="0" gradientUnits="userSpaceOnUse" gradientTransform="matrix(1.95943e-15,31.9999,-32,1.95943e-15,1225.04,4.25066e-05)"><stop offset="0" style="stop-color:#f7b3ff;stop-opacity:1"/><stop offset="1" style="stop-color:#ee8aff;stop-opacity:1"/></linearGradient>
    </defs>
</svg>
