<?xml version="1.0" encoding="UTF-8" standalone="no"?>
<!DOCTYPE svg PUBLIC "-//W3C//DTD SVG 1.1//EN" "http://www.w3.org/Graphics/SVG/1.1/DTD/svg11.dtd">
<svg width="100%" height="100%" viewBox="0 0 32 32" version="1.1" xmlns="http://www.w3.org/2000/svg" xmlns:xlink="http://www.w3.org/1999/xlink" xml:space="preserve" xmlns:serif="http://www.serif.com/" style="fill-rule:evenodd;clip-rule:evenodd;stroke-linejoin:round;stroke-miterlimit:2;">
    <path id="react" d="M26.311,10.993C25.97,10.876 25.627,10.767 25.28,10.668C25.338,10.435 25.391,10.201 25.44,9.965C26.219,6.18 25.709,3.131 23.968,2.127C22.299,1.164 19.569,2.168 16.812,4.567C16.54,4.804 16.274,5.048 16.015,5.299C15.841,5.132 15.664,4.969 15.485,4.809C12.595,2.243 9.698,1.162 7.959,2.169C6.291,3.134 5.797,6.001 6.499,9.588C6.569,9.943 6.648,10.297 6.736,10.648C6.326,10.765 5.93,10.889 5.552,11.021C2.164,12.202 -0,14.053 -0,15.973C-0,17.956 2.323,19.945 5.851,21.151C6.138,21.249 6.426,21.339 6.717,21.422C6.622,21.8 6.539,22.181 6.465,22.564C5.796,26.089 6.319,28.888 7.982,29.848C9.7,30.838 12.584,29.82 15.391,27.366C15.613,27.172 15.836,26.967 16.059,26.75C16.34,27.021 16.628,27.284 16.924,27.54C19.644,29.88 22.33,30.825 23.992,29.863C25.708,28.869 26.266,25.862 25.542,22.204C25.486,21.925 25.422,21.64 25.35,21.349C25.552,21.289 25.751,21.227 25.945,21.163C29.613,19.948 32,17.983 32,15.973C32,14.046 29.767,12.182 26.311,10.993ZM24.354,26.693C24.295,27.471 23.915,28.191 23.307,28.68C22.298,29.264 20.141,28.505 17.816,26.503C17.549,26.274 17.281,26.029 17.011,25.77C17.981,24.696 18.877,23.558 19.693,22.364C21.152,22.241 22.6,22.018 24.027,21.696C24.093,21.959 24.15,22.217 24.201,22.47C24.511,23.856 24.563,25.288 24.354,26.693L24.354,26.693ZM14.492,26.336C13.445,27.297 12.231,28.058 10.91,28.579L10.909,28.579C10.205,28.916 9.392,28.946 8.665,28.663C7.656,28.081 7.236,25.834 7.809,22.819C7.877,22.463 7.954,22.109 8.042,21.757C9.464,22.062 10.905,22.271 12.355,22.381C13.195,23.571 14.113,24.705 15.101,25.775C14.903,25.967 14.7,26.154 14.492,26.336ZM16.053,24.791C15.405,24.092 14.759,23.319 14.128,22.487C14.74,22.511 15.364,22.523 16,22.523C16.652,22.523 17.296,22.509 17.932,22.481C17.345,23.282 16.718,24.054 16.053,24.791L16.053,24.791ZM10.174,16.006C10.595,15.129 11.049,14.269 11.535,13.426L11.535,13.426C12.02,12.584 12.538,11.76 13.086,10.956C14.038,10.884 15.014,10.847 16,10.847C16.991,10.847 17.968,10.885 18.919,10.957C19.462,11.759 19.976,12.58 20.461,13.419C20.949,14.26 21.409,15.115 21.841,15.986C21.413,16.866 20.955,17.729 20.466,18.577L20.466,18.577C19.981,19.419 19.469,20.244 18.93,21.054C17.981,21.121 17,21.156 16,21.156C15.004,21.156 14.036,21.125 13.103,21.065C12.55,20.258 12.029,19.431 11.539,18.584C11.051,17.742 10.596,16.883 10.174,16.006L10.174,16.006ZM9.449,17.613C9.738,18.172 10.04,18.724 10.356,19.269C10.678,19.825 11.012,20.373 11.36,20.912C10.37,20.805 9.386,20.647 8.411,20.438C8.694,19.526 9.042,18.578 9.449,17.613ZM21.65,19.26C21.972,18.701 22.281,18.136 22.578,17.564C22.985,18.483 23.343,19.423 23.652,20.379C22.667,20.601 21.671,20.77 20.667,20.888C21.006,20.352 21.333,19.809 21.65,19.26L21.65,19.26ZM7.084,20.105C6.818,20.029 6.555,19.947 6.294,19.858C4.938,19.432 3.673,18.759 2.561,17.875C1.918,17.434 1.485,16.745 1.367,15.973C1.367,14.808 3.104,13.322 6.002,12.311C6.365,12.185 6.732,12.07 7.103,11.965C7.533,13.345 8.054,14.695 8.663,16.006C8.047,17.336 7.519,18.706 7.084,20.105ZM25.515,19.866L24.977,20.034C24.53,18.647 23.988,17.293 23.357,15.98C23.965,14.684 24.485,13.35 24.914,11.985C25.242,12.08 25.559,12.18 25.866,12.285C28.827,13.304 30.633,14.812 30.633,15.973C30.633,17.21 28.682,18.816 25.515,19.866L25.515,19.866ZM16,13.116C16,13.116 16,13.116 16,13.116C17.568,13.116 18.858,14.405 18.858,15.973C18.858,17.541 17.568,18.831 16,18.831C14.432,18.831 13.143,17.541 13.143,15.973C13.143,15.973 13.143,15.973 13.143,15.973C13.143,14.405 14.432,13.116 16,13.116ZM22.565,14.399L22.565,14.399L22.565,14.399L22.565,14.399C22.269,13.838 21.962,13.283 21.644,12.734C21.331,12.194 21.007,11.66 20.671,11.134C21.692,11.263 22.671,11.434 23.589,11.644C23.294,12.579 22.952,13.499 22.565,14.399ZM9.447,14.398C9.049,13.454 8.708,12.526 8.43,11.629C9.343,11.425 10.317,11.258 11.331,11.131C10.992,11.661 10.665,12.198 10.35,12.743C10.036,13.288 9.735,13.839 9.447,14.398ZM17.709,5.599C20.072,3.543 22.28,2.731 23.286,3.311C24.357,3.929 24.774,6.421 24.101,9.689C24.057,9.902 24.009,10.114 23.957,10.326C22.547,10.006 21.118,9.78 19.678,9.65C18.853,8.465 17.95,7.337 16.973,6.274C17.213,6.043 17.458,5.818 17.709,5.599ZM8.644,3.352C9.715,2.732 12.082,3.616 14.577,5.831C14.736,5.973 14.897,6.121 15.057,6.274C14.075,7.337 13.164,8.464 12.331,9.648C10.895,9.777 9.468,9.998 8.061,10.311L7.841,9.326C7.239,6.252 7.639,3.934 8.644,3.352ZM16.015,7.251C16.681,7.977 17.309,8.736 17.898,9.525C16.638,9.465 15.378,9.465 14.116,9.524C14.738,8.704 15.375,7.942 16.015,7.251Z" style="fill:#61dafb;fill-rule:nonzero;"/>
</svg>
