<?xml version="1.0" encoding="UTF-8" standalone="no"?>
<!DOCTYPE svg PUBLIC "-//W3C//DTD SVG 1.1//EN" "http://www.w3.org/Graphics/SVG/1.1/DTD/svg11.dtd">
<svg width="100%" height="100%" viewBox="0 0 32 32" version="1.1" xmlns="http://www.w3.org/2000/svg" xmlns:xlink="http://www.w3.org/1999/xlink" xml:space="preserve" xmlns:serif="http://www.serif.com/" style="fill-rule:evenodd;clip-rule:evenodd;stroke-linejoin:round;stroke-miterlimit:2;">
    <path id="redux" d="M22.179,22.005C23.337,21.905 24.236,20.885 24.177,19.666C24.116,18.448 23.117,17.469 21.9,17.469L21.819,17.469C20.561,17.51 19.581,18.568 19.621,19.828C19.661,20.466 19.922,20.986 20.28,21.365C18.882,24.083 16.785,26.08 13.607,27.759C11.47,28.876 9.212,29.298 7.015,28.998C5.177,28.739 3.74,27.918 2.86,26.6C1.542,24.601 1.422,22.445 2.52,20.288C3.321,18.729 4.519,17.59 5.319,17.03C5.119,16.511 4.879,15.633 4.759,14.974C-1.156,19.21 -0.555,25.003 1.242,27.74C2.581,29.738 5.319,31.015 8.315,31.015C9.114,31.015 9.954,30.956 10.772,30.756C15.967,29.758 19.902,26.641 22.16,22.046L22.179,22.005ZM29.31,17.01C26.215,13.374 21.659,11.376 16.464,11.376L15.783,11.376C15.446,10.638 14.667,10.178 13.787,10.178L13.727,10.178C12.47,10.178 11.49,11.258 11.531,12.515C11.571,13.712 12.59,14.713 13.809,14.713L13.907,14.713C14.807,14.673 15.586,14.113 15.905,13.314L16.645,13.314C19.724,13.314 22.639,14.213 25.296,15.97C27.332,17.309 28.792,19.066 29.611,21.165C30.329,22.883 30.29,24.561 29.551,25.961C28.412,28.158 26.494,29.318 23.957,29.318C22.359,29.318 20.801,28.818 20.001,28.459C19.522,28.856 18.722,29.516 18.142,29.916C19.9,30.714 21.679,31.174 23.396,31.174C27.292,31.174 30.187,28.978 31.287,26.859C32.485,24.461 32.386,20.426 29.329,16.97L29.31,17.01ZM8.654,22.723C8.692,23.921 9.711,24.92 10.931,24.92L11.011,24.92C12.29,24.88 13.269,23.823 13.209,22.563C13.209,21.364 12.17,20.366 10.951,20.366L10.87,20.366C10.79,20.366 10.671,20.366 10.57,20.405C8.912,17.607 8.212,14.61 8.474,11.376C8.632,8.939 9.432,6.82 10.87,5.062C12.069,3.564 14.326,2.824 15.865,2.785C20.18,2.704 21.979,8.08 22.117,10.218L24.115,10.816C23.655,4.264 19.581,0.826 15.685,0.826C12.029,0.826 8.654,3.484 7.293,7.38C5.436,12.575 6.655,17.569 8.932,21.565C8.734,21.825 8.614,22.284 8.654,22.723Z" style="fill:#764abc;fill-rule:nonzero;"/>
</svg>
