<?xml version="1.0" encoding="UTF-8" standalone="no"?>
<!DOCTYPE svg PUBLIC "-//W3C//DTD SVG 1.1//EN" "http://www.w3.org/Graphics/SVG/1.1/DTD/svg11.dtd">
<svg width="100%" height="100%" viewBox="0 0 32 32" version="1.1" xmlns="http://www.w3.org/2000/svg" xmlns:xlink="http://www.w3.org/1999/xlink" xml:space="preserve" xmlns:serif="http://www.serif.com/" style="fill-rule:evenodd;clip-rule:evenodd;stroke-linejoin:round;stroke-miterlimit:2;">
    <path id="sass" d="M27.549,17.794C26.429,17.799 25.459,18.069 24.65,18.469C24.355,17.874 24.05,17.354 24,16.965C23.94,16.51 23.875,16.24 23.945,15.7C24.015,15.16 24.329,14.395 24.325,14.34C24.32,14.285 24.255,14.01 23.61,14.005C22.965,14 22.41,14.13 22.345,14.3C22.28,14.47 22.155,14.855 22.08,15.255C21.965,15.84 20.79,17.929 20.126,19.019C19.906,18.594 19.721,18.219 19.681,17.919C19.621,17.464 19.556,17.194 19.626,16.655C19.696,16.115 20.011,15.35 20.006,15.295C20.001,15.24 19.936,14.965 19.291,14.96C18.646,14.955 18.091,15.085 18.026,15.255C17.961,15.425 17.891,15.825 17.761,16.21C17.631,16.594 16.067,20.074 15.657,20.978C15.447,21.438 15.267,21.808 15.137,22.058C15.117,22.098 15.102,22.123 15.092,22.143C15.107,22.118 15.117,22.093 15.117,22.103C15.007,22.318 14.942,22.438 14.942,22.438L14.942,22.443C14.857,22.603 14.762,22.748 14.717,22.748C14.687,22.748 14.622,22.328 14.732,21.753C14.967,20.543 15.522,18.664 15.517,18.599C15.512,18.564 15.622,18.239 15.152,18.064C14.697,17.899 14.532,18.174 14.492,18.174C14.452,18.174 14.422,18.274 14.422,18.274C14.422,18.274 14.927,16.155 13.452,16.155C12.533,16.155 11.253,17.165 10.623,18.079C10.228,18.294 9.374,18.759 8.474,19.254C8.129,19.444 7.774,19.639 7.439,19.824C7.414,19.799 7.394,19.774 7.369,19.749C5.58,17.839 2.276,16.49 2.416,13.925C2.466,12.991 2.791,10.536 8.769,7.557C13.668,5.118 17.586,5.788 18.261,7.277C19.231,9.402 16.167,13.356 11.078,13.925C9.139,14.14 8.119,13.39 7.864,13.111C7.599,12.816 7.559,12.801 7.459,12.856C7.294,12.946 7.399,13.206 7.459,13.361C7.609,13.755 8.234,14.455 9.299,14.805C10.233,15.11 12.508,15.28 15.257,14.215C18.346,13.026 20.751,9.711 20.046,6.937C19.326,4.118 14.652,3.193 10.229,4.763C7.594,5.698 4.745,7.167 2.696,9.082C0.261,11.361 -0.129,13.345 0.031,14.175C0.601,17.119 4.66,19.039 6.285,20.459C6.205,20.504 6.13,20.544 6.06,20.584C5.245,20.988 2.151,22.608 1.376,24.318C0.501,26.257 1.521,27.647 2.191,27.837C4.28,28.416 6.419,27.372 7.569,25.657C8.719,23.943 8.579,21.703 8.049,20.683C8.044,20.669 8.034,20.659 8.029,20.643C8.239,20.519 8.454,20.394 8.669,20.269C9.084,20.024 9.489,19.799 9.844,19.604C9.644,20.144 9.499,20.793 9.424,21.733C9.334,22.833 9.789,24.258 10.378,24.817C10.638,25.062 10.953,25.067 11.148,25.067C11.838,25.067 12.148,24.497 12.493,23.818C12.918,22.988 13.293,22.023 13.293,22.023C13.293,22.023 12.823,24.632 14.107,24.632C14.577,24.632 15.047,24.028 15.257,23.718L15.257,23.723C15.257,23.723 15.267,23.703 15.292,23.663C15.342,23.588 15.367,23.543 15.367,23.543L15.367,23.528C15.557,23.203 15.972,22.458 16.596,21.228C17.406,19.639 18.181,17.654 18.181,17.654C18.181,17.654 18.251,18.139 18.491,18.944C18.631,19.419 18.926,19.939 19.161,20.444C18.971,20.703 18.856,20.853 18.856,20.853C18.856,20.853 18.856,20.858 18.861,20.863C18.711,21.063 18.541,21.278 18.366,21.488C17.726,22.248 16.966,23.118 16.866,23.368C16.746,23.663 16.776,23.883 17.006,24.053C17.176,24.183 17.476,24.203 17.791,24.178C18.366,24.138 18.771,23.998 18.966,23.908C19.276,23.798 19.636,23.623 19.976,23.378C20.6,22.918 20.98,22.258 20.945,21.388C20.925,20.909 20.77,20.429 20.58,19.979C20.635,19.899 20.695,19.814 20.75,19.729C21.74,18.284 22.505,16.7 22.505,16.7C22.505,16.7 22.575,17.184 22.815,17.989C22.935,18.394 23.17,18.839 23.385,19.274C22.455,20.029 21.88,20.904 21.68,21.478C21.31,22.543 21.6,23.023 22.145,23.133C22.39,23.183 22.74,23.068 23,22.958C23.325,22.848 23.715,22.673 24.079,22.403C24.704,21.943 25.309,21.298 25.269,20.424C25.254,20.029 25.144,19.634 24.999,19.254C25.784,18.924 26.804,18.744 28.103,18.894C30.888,19.219 31.432,20.958 31.327,21.683C31.223,22.413 30.638,22.813 30.443,22.933C30.248,23.053 30.188,23.098 30.203,23.188C30.228,23.318 30.318,23.313 30.483,23.283C30.713,23.243 31.942,22.693 31.997,21.348C32.077,19.649 30.443,17.779 27.549,17.794ZM6.09,25.027C5.17,26.032 3.88,26.412 3.325,26.092C2.731,25.747 2.966,24.268 4.1,23.198C4.79,22.548 5.68,21.948 6.27,21.578C6.405,21.498 6.6,21.378 6.84,21.233C6.88,21.209 6.899,21.198 6.899,21.198C6.944,21.168 6.994,21.143 7.044,21.113C7.459,22.633 7.059,23.973 6.09,25.027ZM12.808,20.459C12.488,21.243 11.813,23.243 11.403,23.138C11.053,23.048 10.838,21.523 11.333,20.024C11.583,19.269 12.113,18.369 12.428,18.019C12.933,17.454 13.488,17.274 13.618,17.499C13.792,17.794 13.008,19.969 12.808,20.459ZM18.356,23.108C18.221,23.178 18.096,23.223 18.036,23.188C17.991,23.163 18.091,23.068 18.091,23.068C18.091,23.068 18.786,22.323 19.061,21.983C19.221,21.783 19.406,21.548 19.606,21.288C19.606,21.313 19.611,21.338 19.611,21.368C19.606,22.263 18.746,22.868 18.356,23.108ZM22.635,22.133C22.535,22.063 22.55,21.828 22.885,21.098C23.015,20.813 23.315,20.334 23.835,19.874C23.895,20.064 23.93,20.243 23.93,20.413C23.925,21.538 23.12,21.958 22.635,22.133Z" style="fill:#cf649a;fill-rule:nonzero;"/>
</svg>
