<?xml version="1.0" encoding="UTF-8" standalone="no"?>
<!DOCTYPE svg PUBLIC "-//W3C//DTD SVG 1.1//EN" "http://www.w3.org/Graphics/SVG/1.1/DTD/svg11.dtd">
<svg width="100%" height="100%" viewBox="0 0 32 32" version="1.1" xmlns="http://www.w3.org/2000/svg" xmlns:xlink="http://www.w3.org/1999/xlink" xml:space="preserve" xmlns:serif="http://www.serif.com/" style="fill-rule:evenodd;clip-rule:evenodd;stroke-linejoin:round;stroke-miterlimit:2;">
    <path id="typescript" d="M-0,0L-0,32L32,32L32,0L-0,0ZM25.788,14.726C26.6,14.929 27.22,15.29 27.789,15.879C28.084,16.193 28.521,16.767 28.556,16.904C28.566,16.944 27.175,17.879 26.331,18.403C26.301,18.423 26.179,18.291 26.041,18.088C25.63,17.488 25.198,17.229 24.538,17.184C23.568,17.118 22.938,17.626 22.948,18.474C22.948,18.723 22.983,18.87 23.085,19.074C23.298,19.516 23.695,19.78 24.939,20.319C27.23,21.304 28.21,21.954 28.819,22.879C29.499,23.91 29.652,25.556 29.19,26.78C28.682,28.111 27.422,29.015 25.65,29.315C25.101,29.411 23.801,29.396 23.212,29.29C21.927,29.061 20.708,28.426 19.956,27.593C19.661,27.268 19.087,26.42 19.123,26.358C19.138,26.338 19.27,26.257 19.418,26.17L20.606,25.485L21.526,24.952L21.719,25.237C21.988,25.648 22.578,26.212 22.933,26.4C23.954,26.938 25.356,26.862 26.047,26.242C26.342,25.973 26.463,25.694 26.463,25.282C26.463,24.911 26.418,24.749 26.225,24.47C25.976,24.115 25.468,23.815 24.025,23.19C22.374,22.479 21.663,22.037 21.013,21.336C20.637,20.929 20.281,20.279 20.134,19.736C20.012,19.284 19.981,18.151 20.078,17.694C20.418,16.094 21.622,14.987 23.359,14.657C23.923,14.55 25.234,14.591 25.787,14.728L25.788,14.726ZM18.275,16.06L18.285,17.37L14.121,17.37L14.121,29.205L11.175,29.205L11.175,17.37L7.01,17.37L7.01,16.085L7.045,14.766C7.06,14.746 9.595,14.736 12.668,14.741L18.26,14.756L18.275,16.06Z" style="fill:#007acc;fill-rule:nonzero;"/>
</svg>
