<?xml version="1.0" encoding="UTF-8" standalone="no"?>
<!DOCTYPE svg PUBLIC "-//W3C//DTD SVG 1.1//EN" "http://www.w3.org/Graphics/SVG/1.1/DTD/svg11.dtd">
<svg width="100%" height="100%" viewBox="0 0 32 32" version="1.1" xmlns="http://www.w3.org/2000/svg" xmlns:xlink="http://www.w3.org/1999/xlink" xml:space="preserve" xmlns:serif="http://www.serif.com/" style="fill-rule:evenodd;clip-rule:evenodd;stroke-linejoin:round;stroke-miterlimit:2;">
    <g id="vscode">
        <path d="M30.868,3.462L24.279,0.29C23.516,-0.077 22.605,0.077 22.006,0.676L0.435,20.344C-0.145,20.873 -0.145,21.786 0.436,22.315L2.198,23.916C2.673,24.348 3.388,24.38 3.9,23.992L29.877,4.286C30.748,3.624 32,4.246 32,5.34L32,5.263C32,4.495 31.56,3.796 30.868,3.462Z" style="fill:#0065a9;fill-rule:nonzero;"/>
        <g>
            <path d="M30.868,28.538L24.279,31.71C23.516,32.077 22.605,31.923 22.006,31.324L0.435,11.656C-0.145,11.127 -0.145,10.214 0.436,9.685L2.198,8.084C2.673,7.652 3.388,7.62 3.9,8.008L29.877,27.714C30.748,28.376 32,27.754 32,26.66L32,26.737C32,27.504 31.56,28.204 30.868,28.538Z" style="fill:#007acc;fill-rule:nonzero;"/>
        </g>
        <g>
            <path d="M24.279,31.711C23.516,32.078 22.605,31.923 22.006,31.324C22.744,32.062 24.005,31.539 24.005,30.496L24.005,1.504C24.005,0.461 22.744,-0.062 22.006,0.676C22.605,0.077 23.516,-0.078 24.279,0.289L30.867,3.457C31.56,3.79 32,4.491 32,5.259L32,26.741C32,27.509 31.56,28.21 30.867,28.543L24.279,31.711Z" style="fill:#1f9cf0;fill-rule:nonzero;"/>
        </g>
        <g opacity="0.25">
            <path d="M22.678,31.772C23.182,31.968 23.756,31.956 24.264,31.711L30.849,28.543C31.541,28.21 31.981,27.509 31.981,26.741L31.981,5.259C31.981,4.491 31.541,3.79 30.849,3.457L24.264,0.289C23.597,-0.032 22.816,0.047 22.231,0.472C22.147,0.533 22.067,0.601 21.993,0.676L9.388,12.176L3.898,8.008C3.386,7.62 2.672,7.652 2.197,8.084L0.436,9.685C-0.145,10.214 -0.145,11.127 0.434,11.656L5.196,16L0.434,20.344C-0.145,20.873 -0.145,21.786 0.436,22.315L2.197,23.916C2.672,24.348 3.386,24.38 3.898,23.992L9.388,19.824L21.993,31.324C22.192,31.524 22.426,31.674 22.678,31.772ZM23.99,8.74L14.426,16L23.99,23.26L23.99,8.74Z" style="fill:url(#_Linear1);"/>
        </g>
    </g>
    <defs>
        <linearGradient id="_Linear1" x1="0" y1="0" x2="1" y2="0" gradientUnits="userSpaceOnUse" gradientTransform="matrix(1.94814e-15,31.8156,-31.8156,1.94814e-15,15.9903,0.0922063)"><stop offset="0" style="stop-color:#fff;stop-opacity:1"/><stop offset="1" style="stop-color:#fff;stop-opacity:0"/></linearGradient>
    </defs>
</svg>
