<?xml version="1.0" encoding="UTF-8" standalone="no"?><!DOCTYPE svg PUBLIC "-//W3C//DTD SVG 1.1//EN" "http://www.w3.org/Graphics/SVG/1.1/DTD/svg11.dtd"><svg width="100%" height="100%" viewBox="0 0 33 33" version="1.1" xmlns="http://www.w3.org/2000/svg" xmlns:xlink="http://www.w3.org/1999/xlink" xml:space="preserve" xmlns:serif="http://www.serif.com/" style="fill-rule:evenodd;clip-rule:evenodd;stroke-linejoin:round;stroke-miterlimit:2;"><path id="Artstation" d="M16.457,0.232c8.831,0 16,7.17 16,16c0,8.831 -7.169,16 -16,16c-8.83,0 -16,-7.169 -16,-16c0,-8.83 7.17,-16 16,-16Zm4.899,25.149l-2.418,-4.191l-12.873,0l1.759,3.034c0.343,0.687 1.058,1.157 1.878,1.157l11.654,0Zm-3.525,-18.297c0.806,0 1.507,0.448 1.857,1.114l6.825,11.878c0.211,0.322 0.337,0.715 0.337,1.135c0,0.477 -0.084,0.715 -0.421,1.268l-1.661,2.881l-10.546,-18.276l3.609,0Zm-0.617,11.128l-4.716,-8.171l-4.716,8.171l9.432,0Z" style="fill:#fff;"/></svg>