<?xml version="1.0" encoding="UTF-8" standalone="no"?><!DOCTYPE svg PUBLIC "-//W3C//DTD SVG 1.1//EN" "http://www.w3.org/Graphics/SVG/1.1/DTD/svg11.dtd">
<svg width="100%" height="100%" viewBox="0 0 33 33" version="1.1" 
  xmlns="http://www.w3.org/2000/svg" 
  xmlns:xlink="http://www.w3.org/1999/xlink" xml:space="preserve" 
  style="fill-rule:evenodd;clip-rule:evenodd;stroke-linejoin:round;stroke-miterlimit:2;">
  <path id="Github" d="M16.456,0.232c-8.835,0 -15.999,7.345 -15.999,16.406c0,7.248 4.584,13.396 10.942,15.566c0.801,0.15 1.093,-0.356 1.093,-0.791c0,-0.389 -0.014,-1.421 -0.022,-2.79c-4.45,0.991 -5.389,-2.2 -5.389,-2.2c-0.728,-1.895 -1.777,-2.399 -1.777,-2.399c-1.453,-1.018 0.11,-0.997 0.11,-0.997c1.606,0.115 2.45,1.69 2.45,1.69c1.428,2.507 3.746,1.783 4.657,1.363c0.145,-1.059 0.558,-1.783 1.016,-2.192c-3.553,-0.414 -7.288,-1.822 -7.288,-8.108c0,-1.791 0.623,-3.255 1.647,-4.402c-0.165,-0.415 -0.714,-2.083 0.156,-4.342c0,0 1.344,-0.441 4.4,1.682c1.276,-0.365 2.645,-0.546 4.006,-0.552c1.358,0.006 2.728,0.187 4.005,0.552c3.055,-2.123 4.396,-1.682 4.396,-1.682c0.873,2.259 0.324,3.927 0.159,4.342c1.025,1.147 1.645,2.611 1.645,4.402c0,6.302 -3.741,7.689 -7.306,8.094c0.575,0.507 1.087,1.508 1.087,3.039c0,2.192 -0.02,3.962 -0.02,4.5c0,0.439 0.288,0.949 1.1,0.789c6.353,-2.174 10.933,-8.318 10.933,-15.564c0,-9.061 -7.164,-16.406 -16.001,-16.406" style="fill:#fff;"/>
</svg>