<?xml version="1.0" encoding="UTF-8" standalone="no"?><!DOCTYPE svg PUBLIC "-//W3C//DTD SVG 1.1//EN" "http://www.w3.org/Graphics/SVG/1.1/DTD/svg11.dtd"><svg width="100%" height="100%" viewBox="0 0 25 25" version="1.1" xmlns="http://www.w3.org/2000/svg" xmlns:xlink="http://www.w3.org/1999/xlink" style="fill-rule:evenodd;clip-rule:evenodd;stroke-linejoin:round;stroke-miterlimit:2;"><path d="M23.13,8.065l-4.304,4.304c-1.189,1.189 -3.116,1.189 -4.304,0l1.633,-1.634c0.676,0.179 1.424,0.012 1.954,-0.518l2.869,-2.869c0.793,-0.793 0.793,-2.078 0,-2.87l-1.435,-1.435c-0.792,-0.792 -2.077,-0.792 -2.869,0l-2.87,2.87c-0.529,0.53 -0.697,1.278 -0.518,1.953l-1.634,1.634c-1.188,-1.189 -1.188,-3.116 0,-4.304l4.304,-4.305c1.189,-1.188 3.116,-1.188 4.305,0l2.869,2.87c1.189,1.189 1.189,3.116 0,4.304Zm-15.065,7.891c-0.396,-0.396 -0.396,-1.038 0,-1.435l6.457,-6.456c0.396,-0.396 1.038,-0.396 1.434,0c0.397,0.396 0.397,1.039 0,1.435l-6.456,6.456c-0.396,0.397 -1.039,0.397 -1.435,0Zm-2.152,-2.152l-2.869,2.87c-0.793,0.792 -0.793,2.077 0,2.869l1.434,1.435c0.793,0.792 2.078,0.792 2.87,0l2.869,-2.87c0.53,-0.529 0.697,-1.277 0.519,-1.953l1.634,-1.634c1.188,1.189 1.188,3.116 0,4.305l-4.305,4.304c-1.188,1.188 -3.115,1.188 -4.304,0l-2.87,-2.869c-1.188,-1.189 -1.188,-3.116 0,-4.305l4.305,-4.304c1.188,-1.188 3.115,-1.188 4.304,0l-1.634,1.634c-0.675,-0.179 -1.423,-0.011 -1.953,0.518Z"/></svg>