<?xml version="1.0" encoding="UTF-8" standalone="no"?><!DOCTYPE svg PUBLIC "-//W3C//DTD SVG 1.1//EN" "http://www.w3.org/Graphics/SVG/1.1/DTD/svg11.dtd"><svg width="100%" height="100%" viewBox="0 0 512 513" version="1.1" xmlns="http://www.w3.org/2000/svg" xmlns:xlink="http://www.w3.org/1999/xlink" xml:space="preserve" xmlns:serif="http://www.serif.com/" style="fill-rule:evenodd;clip-rule:evenodd;stroke-linejoin:round;stroke-miterlimit:2;"><rect id="Logo-Blue" serif:id="Logo Blue" x="0" y="0.873" width="512" height="512" style="fill:#3d7af5;"/><path d="M297.827,324.071l0,9.71c-0.058,31.302 -11.096,63.492 -35.788,83.593c-20.143,16.398 -47.685,23.134 -73.444,18.026c-29.095,-5.769 -54.464,-26.711 -66.558,-54.8c-6.31,-14.657 -9.115,-30.707 -9.176,-46.744l52.618,-0.199c0.007,1.923 0.072,3.84 0.209,5.753c0.078,1.103 0.179,2.205 0.305,3.304c1.637,14.21 7.881,28.669 20.784,36.425c14.475,8.7 34.865,6.563 46.62,-7.023c8.838,-10.214 11.762,-24.593 11.812,-38.127l0,-0.257l0,-188.124l52.618,0l0,54.02c7.591,-7.129 15.941,-13.447 25,-18.716c20.147,-11.718 43.581,-17.734 66.821,-17.876c0.392,-0.001 0.783,-0.002 1.175,-0.001c2.678,0.012 5.357,0.093 8.034,0.24l0.282,0.016l-3.023,52.531c-21.622,-1.244 -43.199,5.383 -59.952,20.029c-20.843,18.224 -33.397,44.941 -37.258,71.971c-0.76,5.32 -1.079,16.249 -1.079,16.249l0,0Zm-10.977,-194.289l-30.664,0l-15.332,-26.556l15.332,-26.556l30.664,0l15.332,26.556l-15.332,26.556Z" style="fill:#fff;"/></svg>