<?xml version="1.0" encoding="UTF-8" standalone="no"?><!DOCTYPE svg PUBLIC "-//W3C//DTD SVG 1.1//EN" "http://www.w3.org/Graphics/SVG/1.1/DTD/svg11.dtd"><svg width="100%" height="100%" viewBox="0 0 77 97" version="1.1" xmlns="http://www.w3.org/2000/svg" xmlns:xlink="http://www.w3.org/1999/xlink" xml:space="preserve" xmlns:serif="http://www.serif.com/" style="fill-rule:evenodd;clip-rule:evenodd;stroke-linejoin:round;stroke-miterlimit:2;"><path d="M49.612,66.359l0,2.604c-0.015,8.396 -2.976,17.03 -9.599,22.422c-5.403,4.398 -12.79,6.205 -19.699,4.835c-7.804,-1.547 -14.609,-7.164 -17.853,-14.699c-1.692,-3.931 -2.445,-8.236 -2.461,-12.537l14.113,-0.054c0.002,0.516 0.02,1.03 0.056,1.543c0.021,0.296 0.048,0.592 0.082,0.887c0.439,3.811 2.114,7.689 5.575,9.77c3.883,2.333 9.352,1.76 12.505,-1.884c2.37,-2.74 3.154,-6.597 3.168,-10.227l0,-0.069l0,-50.459l14.113,0l0,14.489c2.036,-1.912 4.276,-3.607 6.706,-5.02c5.404,-3.143 11.689,-4.756 17.923,-4.795c0.105,0 0.21,0 0.315,0c0.719,0.003 1.437,0.025 2.155,0.065l0.076,0.004l-0.811,14.09c-5.8,-0.334 -11.587,1.444 -16.081,5.372c-5.59,4.888 -8.957,12.055 -9.993,19.305c-0.204,1.427 -0.29,4.358 -0.29,4.358l0,0Zm-2.944,-52.113l-8.225,0l-4.112,-7.123l4.112,-7.123l8.225,0l4.112,7.123l-4.112,7.123Z" style="fill:#333;"/></svg>