<?xml version="1.0" encoding="UTF-8" standalone="no"?><!DOCTYPE svg PUBLIC "-//W3C//DTD SVG 1.1//EN" "http://www.w3.org/Graphics/SVG/1.1/DTD/svg11.dtd"><svg width="100%" height="100%" viewBox="0 0 33 33" version="1.1" xmlns="http://www.w3.org/2000/svg" xmlns:xlink="http://www.w3.org/1999/xlink" xml:space="preserve" xmlns:serif="http://www.serif.com/" style="fill-rule:evenodd;clip-rule:evenodd;stroke-linejoin:round;stroke-miterlimit:2;"><path id="Twitter" d="M32.497,16.232c0,8.837 -7.163,16 -16,16c-8.836,0 -16,-7.163 -16,-16c0,-8.836 7.164,-16 16,-16c8.837,0 16,7.164 16,16Zm-18.927,8.44c7.094,0 10.974,-5.878 10.974,-10.975c0,-0.167 -0.003,-0.333 -0.011,-0.498c0.753,-0.545 1.408,-1.224 1.924,-1.997c-0.691,0.307 -1.434,0.513 -2.215,0.607c0.797,-0.478 1.408,-1.233 1.696,-2.134c-0.745,0.442 -1.57,0.763 -2.449,0.936c-0.704,-0.749 -1.706,-1.218 -2.815,-1.218c-2.13,0 -3.858,1.727 -3.858,3.857c0,0.302 0.034,0.597 0.1,0.879c-3.205,-0.161 -6.048,-1.696 -7.95,-4.03c-0.332,0.57 -0.523,1.232 -0.523,1.939c0,1.338 0.681,2.519 1.717,3.21c-0.633,-0.019 -1.227,-0.193 -1.747,-0.482c-0.001,0.016 -0.001,0.032 -0.001,0.049c0,1.868 1.33,3.428 3.095,3.781c-0.324,0.089 -0.665,0.136 -1.017,0.136c-0.249,0 -0.49,-0.025 -0.725,-0.07c0.491,1.533 1.915,2.648 3.603,2.679c-1.32,1.035 -2.983,1.652 -4.791,1.652c-0.311,0 -0.618,-0.018 -0.92,-0.054c1.707,1.094 3.734,1.733 5.913,1.733Z" style="fill:#fff;fill-rule:nonzero;"/></svg>