<svg xmlns="http://www.w3.org/2000/svg" xmlns:xlink="http://www.w3.org/1999/xlink"><defs><style>
    .sprite-symbol-usage {display: none;}
    .sprite-symbol-usage:target {display: inline;}
  </style><symbol viewBox="0 0 32 32" fill-rule="evenodd" stroke-linejoin="round" stroke-miterlimit="2" id="blender--sprite"><g id="blender--sprite_blender"><path d="M12.581 17.432c.117-2.08 1.136-3.913 2.672-5.212 1.507-1.276 3.536-2.056 5.749-2.056 2.211 0 4.239.78 5.747 2.056 1.536 1.299 2.555 3.132 2.672 5.21.117 2.137-.742 4.122-2.249 5.594-1.537 1.497-3.723 2.437-6.17 2.437-2.448 0-4.638-.94-6.173-2.437-1.508-1.472-2.365-3.457-2.248-5.592z" fill="#fff" fill-rule="nonzero" /><path d="M16.682 17.619c.059-1.068.582-2.008 1.371-2.675a4.567 4.567 0 012.949-1.055 4.57 4.57 0 012.949 1.055c.788.667 1.311 1.607 1.371 2.673.06 1.097-.381 2.116-1.154 2.871-.788.768-1.91 1.25-3.166 1.25s-2.379-.482-3.167-1.25c-.774-.755-1.214-1.774-1.153-2.869z" fill="#265787" fill-rule="nonzero" /><path d="M9.801 19.775c.008.418.141 1.229.341 1.863a9.83 9.83 0 002.123 3.677 10.992 10.992 0 003.716 2.669 11.948 11.948 0 004.88 1.013 11.953 11.953 0 004.876-1.03 11.046 11.046 0 003.713-2.68 9.898 9.898 0 002.123-3.683 9.261 9.261 0 00.333-4.098 9.481 9.481 0 00-1.354-3.706 10.33 10.33 0 00-2.47-2.723l.003-.002L18.088 3.4l-.026-.021c-.656-.503-1.759-.501-2.48.003-.729.51-.813 1.354-.164 1.887l-.002.002 4.169 3.391-12.708.013H6.86c-1.05.001-2.06.691-2.26 1.562-.205.887.508 1.623 1.6 1.627l-.001.004 6.441-.013-11.494 8.823-.044.032c-1.084.831-1.435 2.211-.752 3.085.693.888 2.167.89 3.262.005l6.273-5.134s-.091.693-.084 1.109zm16.12 2.321c-1.293 1.317-3.102 2.064-5.06 2.068-1.961.003-3.771-.737-5.063-2.052a6.005 6.005 0 01-1.382-2.162 5.711 5.711 0 01.375-4.692 6.27 6.27 0 011.538-1.829c1.256-1.023 2.856-1.578 4.529-1.58 1.674-.002 3.273.547 4.53 1.567a6.256 6.256 0 011.536 1.823c.386.696.624 1.464.695 2.274a5.608 5.608 0 01-.318 2.415 6.057 6.057 0 01-1.38 2.168z" fill="#ea7600" fill-rule="nonzero" /></g></symbol><symbol viewBox="0 0 32 32" fill-rule="evenodd" stroke-linejoin="round" stroke-miterlimit="2" id="css--sprite"><g id="css--sprite_css" fill-rule="nonzero"><path id="css--sprite_polygon2989" d="M30.108 0l-2.571 28.797L15.983 32 4.46 28.801 1.892 0h28.216z" fill="#264de4" /><path id="css--sprite_polygon2991" d="M25.337 26.963l2.196-24.608H16v27.196l9.337-2.588z" fill="#2965f1" /><path id="css--sprite_polygon2993" d="M7.779 13.037l.316 3.532H16v-3.532H7.779z" fill="#ebebeb" /><path id="css--sprite_polygon2995" d="M16 5.887H7.143l.321 3.533H16V5.887z" fill="#ebebeb" /><path id="css--sprite_polygon2997" d="M16 25.886v-3.675l-.015.004-3.934-1.062-.252-2.818H8.253l.495 5.547 7.236 2.008.016-.004z" fill="#ebebeb" /><path id="css--sprite_polygon3005" d="M20.337 16.569l-.41 4.581-3.939 1.064v3.675l7.241-2.007.053-.597.83-9.3.087-.948.637-7.15h-8.848V9.42h4.977l-.321 3.617h-4.656v3.532h4.349z" fill="#fff" /></g></symbol><symbol viewBox="0 0 32 32" fill-rule="evenodd" stroke-linejoin="round" stroke-miterlimit="2" id="designer--sprite"><g id="designer--sprite_designer"><path d="M31.934 1.047a.956.956 0 00-.955-.955H1.073a.956.956 0 00-.955.955v29.906c0 .527.428.955.955.955h29.906a.956.956 0 00.955-.955V1.047z" fill="#144e8c" /><path d="M31.934 1.047a.956.956 0 00-.955-.955H1.073a.956.956 0 00-.955.955v29.906c0 .527.428.955.955.955h29.906a.956.956 0 00.955-.955V1.047z" fill="#1b72be" /><path d="M31.934 1.047a.956.956 0 00-.955-.955H13.163L.118 22.686v8.267c0 .527.428.955.955.955h29.906a.956.956 0 00.955-.955V1.047z" fill="#0568aa" /><path d="M14.828 31.908h-2.219L6.878 20.386 18.047.092h1.797L8.152 20.344l6.676 11.564zm6.011 0h-5.534l-6.52-11.293h23.151l-.002 2.108-11.095 9.185zM15.339.092h-1.858L.118 23.237v3.218L15.339.092zm3.228 20.106h-6.293a2.055 2.055 0 01-1.785-1.02 2.057 2.057 0 010-2.056l3.151-5.457 4.927 8.533zm13.367 0h-12.89l-5.166-8.947L20.321.092l2.334.002-3.39 11.534 1.574 3.233 11.095 4.363v.974z" fill="#074f7f" /><path d="M31.934 31.908H15.783l-6.282-10.88h22.433v10.88zm-17.583 0H.118v-7.845L13.958.092h5.409L7.674 20.344l6.677 11.564zm3.501-12.121h-5.468a1.702 1.702 0 01-1.48-2.557l2.736-4.739 4.212 7.296zm14.082 0H19.285l-4.929-8.536L20.798.092h11.136v19.695z" fill="#38d9fa" /><path d="M7.674 20.344l6.677 11.564h-.441L7.234 20.344 18.926.092h.44L7.674 20.344zm24.26.684v.382H10.163l6.061 10.498h-.441l-6.282-10.88h22.433zM.118 24.827v-.764L13.958.092h.441L.118 24.827zm17.734-5.04l-5.568-.003-.285-.04-.258-.081-.218-.105-.221-.153-.232-.229-.194-.288-.122-.292-.069-.326-.003-.338.056-.307.109-.289.057-.106 2.736-4.739 4.212 7.296zM21.239.092l-6.443 11.159 4.708 8.154h12.43v.382h-12.65l-4.928-8.536L20.798.092h.441zM11.235 17.42l-.098.209-.063.241-.016.262.035.261.077.226.111.203.128.162.138.128.14.099.161.083.157.057.17.038.147.015.045.001h4.824l-3.551-6.151-2.405 4.166z" fill="#4ac5fa" /></g></symbol><symbol viewBox="0 0 32 32" fill-rule="evenodd" stroke-linejoin="round" stroke-miterlimit="2" id="docker--sprite"><path id="docker--sprite_docker" d="M31.335 12.028c-.72-.485-2.38-.659-3.655-.419-.165-1.2-.835-2.245-2.054-3.185l-.7-.465-.466.7c-.92 1.39-1.169 3.679-.184 5.189-.435.235-1.291.555-2.42.535H.122c-.435 2.54.29 5.84 2.2 8.105 1.855 2.195 4.635 3.31 8.269 3.31 7.87 0 13.695-3.625 16.419-10.21 1.07.02 3.38.005 4.565-2.26.075-.125.33-.66.425-.855l-.665-.445zm-13.839-1.389h-3.305v2.969h3.305v-2.969zm-7.81-.005H6.382v2.969h3.304v-2.969zm3.905 0h-3.304v2.969h3.304v-2.969zm-7.804 0H2.482v2.969h3.305v-2.969zm15.619 0h-3.305v2.969h3.305v-2.969zm-3.91-3.605h-3.305v3.005h3.305V7.029zm-7.81 0H6.382v3.005h3.304V7.029zm3.905 0h-3.304v3.005h3.304V7.029zm3.905-3.635h-3.305v3.035h3.305V3.394z" fill="#099cec" /></symbol><symbol viewBox="0 0 32 32" fill-rule="evenodd" stroke-linejoin="round" stroke-miterlimit="2" id="email--sprite"><ellipse id="email--sprite_email" cx="16.013" cy="15.988" rx="15.987" ry="15.988" fill="#fff" /><g clip-path="url(#email--sprite__clip1)"><path fill="#fff" d="M3.306 8.497h25.415v14.982H3.306z" /><path d="M28.72 8.497H3.306v14.982H28.72V8.497zM27.377 9.84v12.296H4.649V9.84h22.728z" fill="#323232" /><path d="M16.013 18.384L28.72 8.497H3.306l12.707 9.887z" fill="#fff" /><path d="M16.013 18.384L28.72 8.497H3.306l12.707 9.887zm0-1.702L7.219 9.84h17.588l-8.794 6.842z" fill="#323232" /></g></symbol><clipPath id="email--sprite__clip1"><ellipse cx="16.013" cy="15.988" rx="15.987" ry="15.988" /></clipPath><symbol viewBox="0 0 32 32" fill-rule="evenodd" stroke-linejoin="round" stroke-miterlimit="2" id="git--sprite"><g id="git--sprite_git" fill-rule="nonzero"><path d="M31.415 14.578h-.001L17.415.57c-.755-.757-2.076-.756-2.829-.001L.585 14.578A1.994 1.994 0 000 15.993c0 .534.208 1.037.586 1.415l13.999 14.007c.377.379.88.587 1.415.587s1.038-.208 1.414-.586l14-14.008c.378-.378.586-.881.586-1.415s-.208-1.036-.585-1.415z" fill="#ef473b" /><path d="M31.575 16.922L17.429 31.077c-.38.381-.888.592-1.429.592a2.007 2.007 0 01-1.43-.593L.425 16.922a2.02 2.02 0 01-.389-.563c.073.395.26.759.55 1.049l13.999 14.007c.377.379.88.587 1.415.587s1.038-.208 1.414-.586l14-14.008c.29-.29.477-.654.55-1.049a2.02 2.02 0 01-.389.563z" fill="#010101" fill-opacity=".1" /><path d="M22.667 13.336c-.5 0-.963.146-1.363.387l-3.024-3.024c.24-.401.387-.863.387-1.363A2.67 2.67 0 0016 6.669c-.493 0-.95.144-1.346.378l-3.272-3.272-.943.943 3.272 3.272a2.637 2.637 0 00-.378 1.346c0 1.239.854 2.274 2 2.572v8.189a2.665 2.665 0 00-2 2.572A2.67 2.67 0 0016 25.336a2.67 2.67 0 002.667-2.667 2.665 2.665 0 00-2-2.572v-8.189c.235-.062.456-.155.662-.274l3.04 3.039A2.628 2.628 0 0020 16.002a2.67 2.67 0 002.667 2.667 2.67 2.67 0 002.666-2.667 2.67 2.67 0 00-2.666-2.666z" fill="#fff" /><path d="M.585 14.912L14.586.903c.753-.756 2.074-.757 2.829 0l13.999 14.008.001.001c.337.338.53.777.569 1.247.004-.055.016-.11.016-.166 0-.534-.208-1.036-.585-1.415h-.001L17.415.57c-.755-.757-2.076-.756-2.829-.001L.585 14.578A1.994 1.994 0 000 15.993c0 .056.012.111.016.166.039-.47.232-.909.569-1.247z" fill="#fff" fill-opacity=".2" /><path d="M24.732 14.336c.37.458.601 1.033.601 1.666a2.67 2.67 0 01-2.666 2.667A2.67 2.67 0 0120 16.002c0-.486.14-.936.369-1.329l-3.04-3.039a2.696 2.696 0 01-.662.274v8.189c1.146.298 2 1.333 2 2.572A2.67 2.67 0 0116 25.336a2.648 2.648 0 01-1.771-.688l4.976 4.976 10.404-10.41-4.877-4.878zm-6.452-3.637l3.024 3.024a2.63 2.63 0 011.363-.387c.633 0 1.208.231 1.666.601l-6.237-6.236-.003.002c.354.453.574 1.015.574 1.633 0 .5-.147.962-.387 1.363z" fill="url(#git--sprite__Linear1)" /><path d="M31.415 14.578h-.001L17.415.57c-.755-.757-2.076-.756-2.829-.001L.585 14.578A1.994 1.994 0 000 15.993c0 .534.208 1.037.586 1.415l13.999 14.007c.377.379.88.587 1.415.587s1.038-.208 1.414-.586l14-14.008c.378-.378.586-.881.586-1.415s-.208-1.036-.585-1.415z" fill="url(#git--sprite__Linear2)" /></g><defs></defs></symbol><linearGradient id="git--sprite__Linear1" x1="0" y1="0" x2="1" y2="0" gradientUnits="userSpaceOnUse" gradientTransform="scale(16.2866) rotate(45 -.56 1.352)"><stop offset="0" stop-color="#010101" stop-opacity=".1" /><stop offset="1" stop-color="#010101" stop-opacity="0" /></linearGradient><linearGradient id="git--sprite__Linear2" x1="0" y1="0" x2="1" y2="0" gradientUnits="userSpaceOnUse" gradientTransform="scale(29.3786) rotate(25 -.706 .373)"><stop offset="0" stop-color="#fff" stop-opacity=".2" /><stop offset="1" stop-color="#fff" stop-opacity="0" /></linearGradient><symbol viewBox="0 0 32 32" fill-rule="evenodd" stroke-linejoin="round" stroke-miterlimit="2" id="github--sprite"><g id="github--sprite_github"><circle cx="16.026" cy="16.241" r="15.736" fill="#fff" /><path d="M16.025 0C7.189 0 .026 7.163.026 16c0 7.07 4.584 13.066 10.942 15.183.801.146 1.092-.348 1.092-.772 0-.379-.014-1.386-.021-2.721-4.451.966-5.39-2.145-5.39-2.145-.728-1.848-1.777-2.34-1.777-2.34-1.452-.993.11-.973.11-.973 1.606.114 2.451 1.649 2.451 1.649 1.427 2.445 3.745 1.738 4.657 1.33.145-1.034.558-1.74 1.015-2.139-3.552-.404-7.288-1.777-7.288-7.908 0-1.747.624-3.175 1.647-4.294-.165-.404-.714-2.031.157-4.234 0 0 1.343-.43 4.4 1.64a15.352 15.352 0 014.005-.538c1.359.006 2.728.184 4.006.538 3.055-2.07 4.395-1.64 4.395-1.64.874 2.203.325 3.83.16 4.234 1.025 1.119 1.645 2.547 1.645 4.294 0 6.146-3.741 7.499-7.306 7.895.575.494 1.086 1.47 1.086 2.963 0 2.138-.019 3.864-.019 4.389 0 .428.287.926 1.1.77C27.446 29.06 32.026 23.068 32.026 16c0-8.837-7.164-16-16.001-16" fill="#181717" /></g></symbol><symbol viewBox="0 0 32 32" fill-rule="evenodd" stroke-linejoin="round" stroke-miterlimit="2" id="html--sprite"><g id="html--sprite_html" fill-rule="nonzero"><path d="M4.457 28.811L1.89 0h28.22l-2.567 28.795L15.977 32" fill="#e44d26" /><path d="M16 29.55V2.365h11.535l-2.201 24.579" fill="#f16529" /><path d="M7.133 5.888H16V9.42h-4.994l.327 3.616H16v3.524H8.097m.156 1.773H11.8l.249 2.824L16 22.215v3.687l-7.249-2.023" fill="#ebebeb" /><path d="M24.836 5.888h-8.852V9.42h8.525m-.318 3.616h-8.207v3.532h4.356l-.412 4.589-3.944 1.058v3.671l7.234-2.007" fill="#fff" /></g></symbol><symbol viewBox="0 0 32 32" fill-rule="evenodd" stroke-linejoin="round" stroke-miterlimit="2" id="javascript--sprite"><g id="javascript--sprite_javascript"><path fill="#f7df1e" d="M0 0h32v32H0z" /><path d="M21.496 25c.644 1.053 1.483 1.826 2.966 1.826 1.246 0 2.042-.623 2.042-1.483 0-1.031-.818-1.396-2.189-1.996l-.752-.323c-2.17-.924-3.611-2.082-3.611-4.531 0-2.255 1.718-3.972 4.404-3.972 1.911 0 3.286.666 4.276 2.408l-2.341 1.504c-.516-.925-1.072-1.289-1.935-1.289-.881 0-1.439.559-1.439 1.289 0 .902.558 1.267 1.848 1.826l.752.322c2.555 1.095 3.998 2.212 3.998 4.723 0 2.708-2.127 4.191-4.983 4.191-2.793 0-4.597-1.331-5.48-3.075L21.496 25zm-10.623.261c.473.838.902 1.546 1.936 1.546.988 0 1.611-.386 1.611-1.889V14.693h3.007v10.265c0 3.114-1.826 4.531-4.49 4.531-2.408 0-3.802-1.246-4.511-2.746l2.447-1.482z" fill-rule="nonzero" /></g></symbol><symbol viewBox="0 0 32 32" fill-rule="evenodd" stroke-linejoin="round" stroke-miterlimit="2" id="less--sprite"><path id="less--sprite_less" d="M30.635 14.147c0-1.025.16-1.63.16-2.73 0-1.71-.63-2.261-2.025-2.261h-1.026v1.211h.315c.711 0 .866.235.866 1.105 0 .815-.08 1.63-.08 2.575 0 1.21.395 1.68 1.18 1.866v.079c-.79.185-1.18.656-1.18 1.866 0 .945.08 1.71.08 2.575 0 .895-.185 1.13-.866 1.13v.025h-.315v1.26h1.026c1.39 0 2.025-.55 2.025-2.26 0-1.13-.16-1.71-.16-2.73 0-.55.34-1.131 1.365-1.18v-1.366c-1.025-.035-1.365-.615-1.365-1.165zm-5.281 1.601c-.79-.316-1.525-.501-1.525-1.026 0-.395.315-.63.895-.63.58 0 1.105.235 1.68.655l1.05-1.39c-.655-.5-1.55-1.025-2.76-1.025-1.786 0-2.996 1.025-2.996 2.47 0 1.286 1.131 1.946 2.076 2.311.815.315 1.605.58 1.605 1.105 0 .395-.315.655-1.025.655-.655 0-1.315-.265-2.026-.815l-1.05 1.525c.79.655 1.996 1.105 2.996 1.105 2.1 0 3.23-1.105 3.23-2.55 0-1.445-1.125-2.05-2.15-2.39zm-17.948 2.97c-.185 0-.42-.16-.42-.655V9.152h-3.73c-1.421 0-2.051.55-2.051 2.26 0 1.13.16 1.76.16 2.73 0 .55-.34 1.13-1.365 1.18v1.366c1.025.025 1.365.605 1.365 1.155 0 .97-.16 1.55-.16 2.68 0 1.71.63 2.261 2.025 2.261h1.026v-1.211h-.315c-.655 0-.866-.265-.866-1.13 0-.865.08-1.605.08-2.575 0-1.21-.395-1.68-1.18-1.866v-.08c.79-.185 1.18-.655 1.18-1.865 0-.945-.08-1.71-.08-2.575 0-.865.185-1.105.866-1.105h.705v7.541c0 1.605.55 2.655 2.155 2.655.5 0 .895-.08 1.18-.185l-.265-1.71c-.155.04-.23.04-.31.04zm11.587-2.97c-.815-.316-1.55-.501-1.55-1.026 0-.395.315-.63.895-.63.58 0 1.105.235 1.68.655l1.05-1.39c-.655-.5-1.55-1.025-2.76-1.025-1.785 0-2.996 1.025-2.996 2.47 0 1.286 1.131 1.946 2.076 2.311.815.315 1.605.58 1.605 1.105 0 .395-.315.655-1.025.655-.655 0-1.315-.265-2.026-.815l-1.025 1.525c.79.655 1.996 1.105 2.996 1.105 2.1 0 3.23-1.105 3.23-2.55.005-1.445-1.125-2.05-2.15-2.39zm-7.751-3.441c-1.92 0-3.756 1.605-3.706 4.126 0 2.6 1.71 4.125 3.966 4.125.945 0 1.995-.34 2.81-.895l-.79-1.39c-.58.34-1.13.5-1.71.5-1.05 0-1.865-.5-2.076-1.71h4.761c.025-.185.08-.55.08-.97.03-2.131-1.13-3.786-3.335-3.786zm-1.5 3.31c.159-1.05.79-1.55 1.525-1.55.945 0 1.315.655 1.315 1.55h-2.84z" fill="#eaf1f9" fill-rule="nonzero" /></symbol><symbol viewBox="0 0 32 32" fill-rule="evenodd" stroke-linejoin="round" stroke-miterlimit="2" id="linkedin-circle--sprite"><g id="linkedin-circle--sprite_linkedin-circle"><path fill="#fff" d="M5.913 6.116h20.188v19.849H5.913z" /><path d="M25.006 23.54v-6.247c0-3.346-1.787-4.904-4.169-4.904-1.922 0-2.783 1.058-3.263 1.8v-1.544h-3.622c.048 1.023 0 10.895 0 10.895h3.622v-6.085c0-.324.023-.65.119-.882.262-.651.857-1.324 1.857-1.324 1.311 0 1.835.998 1.835 2.462v5.829h3.621zM10.137 11.158c1.263 0 2.05-.837 2.05-1.883-.024-1.068-.787-1.881-2.026-1.881-1.238 0-2.048.812-2.048 1.881 0 1.046.786 1.883 2.002 1.883h.022zM16.026 32c-8.836 0-16-7.164-16-16 0-8.837 7.164-16 16-16s16 7.163 16 16c0 8.836-7.164 16-16 16zm-4.078-8.46V12.645H8.327V23.54h3.621z" fill="#007ab9" /></g></symbol><symbol viewBox="0 0 32 32" fill-rule="evenodd" stroke-linejoin="round" stroke-miterlimit="2" id="linkedin-square--sprite"><g id="linkedin-square--sprite_linkedin-square"><path fill="#fff" d="M3.177 3.219h26.309v26.694H3.177z" /><path d="M29.131 0H2.921A2.895 2.895 0 00.026 2.895v26.21A2.895 2.895 0 002.921 32h26.21a2.895 2.895 0 002.895-2.895V2.895A2.895 2.895 0 0029.131 0zM9.928 27.631a.842.842 0 01-.842.842H5.5a.842.842 0 01-.842-.842V12.599c0-.465.377-.842.842-.842h3.586c.465 0 .842.377.842.842v15.032zM7.293 10.34a3.407 3.407 0 110-6.813 3.407 3.407 0 010 6.813zm21.375 17.359a.775.775 0 01-.775.774h-3.848a.775.775 0 01-.774-.774v-7.051c0-1.052.308-4.609-2.749-4.609-2.371 0-2.852 2.435-2.949 3.527v8.133a.775.775 0 01-.775.774h-3.721a.775.775 0 01-.775-.774V12.531c0-.427.347-.774.775-.774h3.721c.428 0 .775.347.775.774v1.312c.879-1.32 2.186-2.338 4.968-2.338 6.162 0 6.127 5.756 6.127 8.919v7.275z" fill="#0077b7" fill-rule="nonzero" /></g></symbol><symbol viewBox="0 0 32 32" fill-rule="evenodd" stroke-linejoin="round" stroke-miterlimit="2" id="next--sprite"><g id="next--sprite_next" fill="#f3f3f3" fill-rule="nonzero"><g id="next--sprite_EXT---Type-something"><path id="next--sprite_EXT" d="M7.551 11.405h6.035v.477H8.104v3.593h5.155v.478H8.104v3.944h5.545v.478H7.551v-8.97zm6.576 0h.641l2.842 3.945 2.904-3.945 3.951-5.011-6.491 9.37 3.345 4.611h-.666l-3.043-4.196-3.056 4.196H13.9l3.37-4.611-3.143-4.359zm7.431.477v-.477h6.878v.477h-3.169v8.493h-.553v-8.493h-3.156z" /><path id="next--sprite_Type-something" d="M0 11.405h.692l9.536 14.201-3.941-5.231-5.709-8.292-.025 8.292H0v-8.97z" /></g><path id="next--sprite__.JS" d="M28.38 19.753a.194.194 0 00.198-.199c0-.113-.083-.2-.198-.2a.195.195 0 00-.198.2c0 .112.085.199.198.199zm.544-.525c0 .332.241.549.592.549.374 0 .6-.223.6-.612v-1.369h-.301v1.367c0 .216-.109.332-.302.332-.172 0-.289-.108-.293-.267h-.296zm1.586-.018c.022.346.311.567.742.567.46 0 .748-.231.748-.602 0-.291-.164-.451-.562-.544l-.214-.052c-.253-.059-.356-.138-.356-.277 0-.174.159-.288.397-.288.226 0 .382.111.411.29h.293c-.017-.326-.305-.555-.7-.555-.424 0-.706.229-.706.574 0 .284.16.453.511.535l.25.06c.258.06.371.149.371.296 0 .172-.178.297-.42.297-.26 0-.44-.117-.466-.301h-.299z" /></g></symbol><symbol viewBox="0 0 32 32" fill-rule="evenodd" stroke-linejoin="round" stroke-miterlimit="2" id="node--sprite"><path id="node--sprite_node" d="M16.006 32c-.429 0-.855-.112-1.23-.329l-3.915-2.317c-.585-.327-.299-.443-.106-.51.779-.273.937-.334 1.769-.807.088-.05.202-.032.292.021l3.007 1.784a.396.396 0 00.364 0l11.726-6.768a.372.372 0 00.179-.317V9.226a.378.378 0 00-.182-.323L16.189 2.14a.363.363 0 00-.361 0L4.109 8.903a.376.376 0 00-.186.32v13.531c0 .129.071.252.182.314l3.211 1.855c1.744.872 2.809-.155 2.809-1.189V10.379c0-.19.15-.337.341-.337h1.485c.185 0 .338.147.338.337V23.74c0 2.325-1.268 3.66-3.473 3.66-.678 0-1.212 0-2.703-.733l-3.076-1.773a2.48 2.48 0 01-1.23-2.14V9.223c0-.881.47-1.702 1.23-2.137L14.775.315a2.569 2.569 0 012.465 0l11.723 6.774a2.474 2.474 0 011.23 2.137v13.531c0 .878-.473 1.696-1.23 2.137L17.24 31.665a2.467 2.467 0 01-1.236.329l.002.006zm3.622-9.324c-5.131 0-6.207-2.355-6.207-4.33 0-.188.152-.338.34-.338h1.514c.168 0 .309.122.335.287.229 1.544.91 2.322 4.012 2.322 2.472 0 3.522-.558 3.522-1.869 0-.754-.299-1.315-4.138-1.691-3.211-.317-5.195-1.024-5.195-3.592 0-2.366 1.996-3.775 5.339-3.775 3.754 0 5.615 1.303 5.849 4.104a.34.34 0 01-.34.369h-1.523a.336.336 0 01-.329-.264c-.367-1.623-1.253-2.142-3.663-2.142-2.698 0-3.012.939-3.012 1.643 0 .854.37 1.104 4.01 1.585 3.604.479 5.315 1.154 5.315 3.687 0 2.553-2.131 4.018-5.846 4.018l.017-.014z" fill="#689f63" /></symbol><symbol viewBox="0 0 32 32" fill-rule="evenodd" stroke-linejoin="round" stroke-miterlimit="2" id="photo--sprite"><g id="photo--sprite_photo"><path d="M32.026.96a.96.96 0 00-.96-.96H.986a.96.96 0 00-.96.96v30.08c0 .53.43.96.96.96h30.08c.53 0 .96-.43.96-.96V.96z" fill="none" /><path d="M32.026.96a.96.96 0 00-.96-.96H.986a.96.96 0 00-.96.96v30.08c0 .53.43.96.96.96h30.08c.53 0 .96-.43.96-.96V.96z" fill="#7e4dd2" /><path d="M32.026.96a.96.96 0 00-.96-.96h-17.92L.026 22.724v8.316c0 .53.43.96.96.96h30.08c.53 0 .96-.43.96-.96V.96z" fill="#7140c2" /><path d="M32.427 32.411l-11.765.003-6.797-11.773h18.579c-.005 3.922-.013 7.849-.017 11.77zm-12.249.003H1.624l9.282-16.059 9.272 16.059zm-19.028 0H-.383l-.005-8.415 7.134-12.36h6.4L1.15 32.414zm16.263-20.773a1.811 1.811 0 011.518.877c.49.841.973 1.685 1.46 2.528.295.518.318 1.184.028 1.726l-.022.039c-.482.845-.973 1.686-1.459 2.529-.303.52-.876.863-1.481.883h-2.805a1.803 1.803 0 01-1.531-.871c-.49-.841-.973-1.686-1.46-2.529a1.813 1.813 0 01-.029-1.726l.022-.039c.483-.845.973-1.685 1.46-2.528a1.812 1.812 0 011.48-.888l.045-.001a320.63 320.63 0 012.774 0zM32.44-.414v20.637H18.912L30.827-.414h1.613zM21.146 15.515L12.828 1.109l.879-1.523h16.636l-9.197 15.929zm-2.96-4.291l-11.197-.002 5.597-9.694 5.6 9.696z" fill="#58328a" fill-rule="nonzero" /><path d="M.91 32H.03l-.004-7.89 6.96-12.055h5.44L.91 32zm31.116-10.944V32H20.901l-6.319-10.944h17.444zM19.461 32H2.341l8.565-14.818L19.461 32zm12.565-12.192H19.629L31.066 0h.96v19.808zm-14.625-7.775c.474.002.927.28 1.172.693a.233.233 0 01.008.012l1.438 2.492.012.021c.235.411.244.929.009 1.348-.482.844-.971 1.683-1.457 2.525a1.392 1.392 0 01-1.171.682c-.916.004-2.753.002-2.755.002a1.39 1.39 0 01-1.18-.668l-.016-.027-1.442-2.497a1.404 1.404 0 010-1.362l.01-.018 1.446-2.507a1.405 1.405 0 011.171-.697h.024l2.714.001h.017zM13.946 0h15.68l-8.48 14.688-7.84-13.579.64-1.109zm3.52 10.808h-9.76l4.88-8.452 4.88 8.452z" fill="#f582ff" /><path d="M19.461 32h-.444l-8.111-14.05L2.785 32h-.444l8.565-14.818L19.461 32zm12.565-10.944v.384H15.247L21.344 32h-.443l-6.319-10.944h17.444zM.912 31.997a.937.937 0 01-.379-.111l11.228-19.447H7.207L.026 24.878v-.768l6.96-12.055h5.44L.912 31.997zm16.472-19.964l.247.022.254.076.253.136.215.177.178.215.05.079 1.477 2.561.098.245.049.247.003.251-.037.228-.071.209-.696 1.226-.9 1.539-.161.181-.217.168-.257.127-.267.07-1.006.018-2.061-.006-.271-.053-.235-.095-.205-.128-.18-.163-.128-.161-.055-.089-1.469-2.546-.081-.194-.056-.248-.011-.254.028-.22.083-.266.074-.149 1.499-2.591.147-.181.211-.18.241-.137.242-.081.254-.033.047-.001 2.714.001zM31.066 0L19.629 19.808h12.397v-.384H20.295L31.46.085A.945.945 0 0031.066 0zM14.668 12.416l-.173.016-.175.051-.145.071-.164.12-.113.117-.092.132-1.485 2.583-.06.167-.029.159-.004.162.021.16.052.166.051.105 1.484 2.566.111.134.147.122.176.096.183.058.19.023 2.836-.005.188-.036.178-.071.155-.099.135-.124.112-.152 1.491-2.59.055-.148.03-.163.004-.15-.02-.157-.054-.174-.067-.133-1.473-2.548-.137-.164-.159-.129-.17-.092-.173-.054-.167-.018-2.739-.001zM29.626 0l-8.48 14.688-7.84-13.579.64-1.109h.443l-.64 1.109 7.397 12.811L29.182 0h.444zm-12.16 10.808h-9.76l4.88-8.452 4.88 8.452zm-9.095-.384h8.43l-4.215-7.3-4.215 7.3z" fill="#f7b3ff" /></g></symbol><symbol viewBox="0 0 32 32" fill-rule="evenodd" stroke-linejoin="round" stroke-miterlimit="2" id="react--sprite"><path id="react--sprite_react" d="M26.311 10.993a20.536 20.536 0 00-1.031-.325c.058-.233.111-.467.16-.703.779-3.785.269-6.834-1.472-7.838-1.669-.963-4.399.041-7.156 2.44-.272.237-.538.481-.797.732-.174-.167-.351-.33-.53-.49-2.89-2.566-5.787-3.647-7.526-2.64-1.668.965-2.162 3.832-1.46 7.419.07.355.149.709.237 1.06-.41.117-.806.241-1.184.373C2.164 12.202 0 14.053 0 15.973c0 1.983 2.323 3.972 5.851 5.178.287.098.575.188.866.271-.095.378-.178.759-.252 1.142-.669 3.525-.146 6.324 1.517 7.284 1.718.99 4.602-.028 7.409-2.482.222-.194.445-.399.668-.616.281.271.569.534.865.79 2.72 2.34 5.406 3.285 7.068 2.323 1.716-.994 2.274-4.001 1.55-7.659-.056-.279-.12-.564-.192-.855.202-.06.401-.122.595-.186 3.668-1.215 6.055-3.18 6.055-5.19 0-1.927-2.233-3.791-5.689-4.98zm-1.957 15.7a2.827 2.827 0 01-1.047 1.987c-1.009.584-3.166-.175-5.491-2.177a19.595 19.595 0 01-.805-.733 32.125 32.125 0 002.682-3.406 31.84 31.84 0 004.334-.668c.066.263.123.521.174.774.31 1.386.362 2.818.153 4.223zm-9.862-.357a11.584 11.584 0 01-3.582 2.243h-.001a2.826 2.826 0 01-2.244.084c-1.009-.582-1.429-2.829-.856-5.844.068-.356.145-.71.233-1.062 1.422.305 2.863.514 4.313.624a33.38 33.38 0 002.746 3.394c-.198.192-.401.379-.609.561zm1.561-1.545a30.563 30.563 0 01-1.925-2.304 47.78 47.78 0 003.804-.006 29.313 29.313 0 01-1.879 2.31zm-5.879-8.785a38.56 38.56 0 012.912-5.05 38.722 38.722 0 015.833.001 40.904 40.904 0 011.542 2.462c.488.841.948 1.696 1.38 2.567-.428.88-.886 1.743-1.375 2.591a45.132 45.132 0 01-1.536 2.477 41.69 41.69 0 01-2.93.102c-.996 0-1.964-.031-2.897-.091a38.435 38.435 0 01-2.929-5.059zm-.725 1.607a39.807 39.807 0 001.911 3.299 28.866 28.866 0 01-2.949-.474c.283-.912.631-1.86 1.038-2.825zM21.65 19.26a44.23 44.23 0 00.928-1.696c.407.919.765 1.859 1.074 2.815-.985.222-1.981.391-2.985.509.339-.536.666-1.079.983-1.628zm-14.566.845a16.432 16.432 0 01-.79-.247 11.574 11.574 0 01-3.733-1.983 2.825 2.825 0 01-1.194-1.902c0-1.165 1.737-2.651 4.635-3.662.363-.126.73-.241 1.101-.346.43 1.38.951 2.73 1.56 4.041a33.24 33.24 0 00-1.579 4.099zm18.431-.239l-.538.168a32.071 32.071 0 00-1.62-4.054 31.98 31.98 0 001.557-3.995c.328.095.645.195.952.3 2.961 1.019 4.767 2.527 4.767 3.688 0 1.237-1.951 2.843-5.118 3.893zM16 13.116a2.87 2.87 0 012.858 2.857A2.871 2.871 0 0116 18.831a2.87 2.87 0 01-2.857-2.858A2.87 2.87 0 0116 13.116zm6.565 1.283a48.163 48.163 0 00-.921-1.665 43.417 43.417 0 00-.973-1.6c1.021.129 2 .3 2.918.51a29.273 29.273 0 01-1.024 2.755zm-13.118-.001a30.08 30.08 0 01-1.017-2.769 31.063 31.063 0 012.901-.498 40.129 40.129 0 00-1.884 3.267zm8.262-8.799c2.363-2.056 4.571-2.868 5.577-2.288 1.071.618 1.488 3.11.815 6.378a17.72 17.72 0 01-.144.637 32.557 32.557 0 00-4.279-.676 32.043 32.043 0 00-2.705-3.376c.24-.231.485-.456.736-.675zM8.644 3.352c1.071-.62 3.438.264 5.933 2.479.159.142.32.29.48.443a32.71 32.71 0 00-2.726 3.374 33.45 33.45 0 00-4.27.663l-.22-.985c-.602-3.074-.202-5.392.803-5.974zm7.371 3.899a29.224 29.224 0 011.883 2.274c-1.26-.06-2.52-.06-3.782-.001a30.3 30.3 0 011.899-2.273z" fill="#61dafb" fill-rule="nonzero" /></symbol><symbol viewBox="0 0 32 32" fill-rule="evenodd" stroke-linejoin="round" stroke-miterlimit="2" id="redux--sprite"><path id="redux--sprite_redux" d="M22.179 22.005c1.158-.1 2.057-1.12 1.998-2.339-.061-1.218-1.06-2.197-2.277-2.197h-.081a2.28 2.28 0 00-2.198 2.359c.04.638.301 1.158.659 1.537-1.398 2.718-3.495 4.715-6.673 6.394-2.137 1.117-4.395 1.539-6.592 1.239-1.838-.259-3.275-1.08-4.155-2.398-1.318-1.999-1.438-4.155-.34-6.312.801-1.559 1.999-2.698 2.799-3.258a13.28 13.28 0 01-.56-2.056C-1.156 19.21-.555 25.003 1.242 27.74c1.339 1.998 4.077 3.275 7.073 3.275.799 0 1.639-.059 2.457-.259 5.195-.998 9.13-4.115 11.388-8.71l.019-.041zm7.131-4.995c-3.095-3.636-7.651-5.634-12.846-5.634h-.681c-.337-.738-1.116-1.198-1.996-1.198h-.06c-1.257 0-2.237 1.08-2.196 2.337.04 1.197 1.059 2.198 2.278 2.198h.098c.9-.04 1.679-.6 1.998-1.399h.74c3.079 0 5.994.899 8.651 2.656 2.036 1.339 3.496 3.096 4.315 5.195.718 1.718.679 3.396-.06 4.796-1.139 2.197-3.057 3.357-5.594 3.357-1.598 0-3.156-.5-3.956-.859-.479.397-1.279 1.057-1.859 1.457 1.758.798 3.537 1.258 5.254 1.258 3.896 0 6.791-2.196 7.891-4.315 1.198-2.398 1.099-6.433-1.958-9.889l-.019.04zM8.654 22.723c.038 1.198 1.057 2.197 2.277 2.197h.08a2.251 2.251 0 002.198-2.357c0-1.199-1.039-2.197-2.258-2.197h-.081c-.08 0-.199 0-.3.039-1.658-2.798-2.358-5.795-2.096-9.029.158-2.437.958-4.556 2.396-6.314 1.199-1.498 3.456-2.238 4.995-2.277 4.315-.081 6.114 5.295 6.252 7.433l1.998.598c-.46-6.552-4.534-9.99-8.43-9.99-3.656 0-7.031 2.658-8.392 6.554-1.857 5.195-.638 10.189 1.639 14.185-.198.26-.318.719-.278 1.158z" fill="#764abc" fill-rule="nonzero" /></symbol><symbol viewBox="0 0 32 32" fill-rule="evenodd" stroke-linejoin="round" stroke-miterlimit="2" id="sass--sprite"><path id="sass--sprite_sass" d="M27.549 17.794a6.554 6.554 0 00-2.899.675c-.295-.595-.6-1.115-.65-1.504-.06-.455-.125-.725-.055-1.265.07-.54.384-1.305.38-1.36-.005-.055-.07-.33-.715-.335-.645-.005-1.2.125-1.265.295-.065.17-.19.555-.265.955-.115.585-1.29 2.674-1.954 3.764-.22-.425-.405-.8-.445-1.1-.06-.455-.125-.725-.055-1.264.07-.54.385-1.305.38-1.36-.005-.055-.07-.33-.715-.335-.645-.005-1.2.125-1.265.295-.065.17-.135.57-.265.955-.13.384-1.694 3.864-2.104 4.768-.21.46-.39.83-.52 1.08-.02.04-.035.065-.045.085.015-.025.025-.05.025-.04-.11.215-.175.335-.175.335v.005c-.085.16-.18.305-.225.305-.03 0-.095-.42.015-.995.235-1.21.79-3.089.785-3.154-.005-.035.105-.36-.365-.535-.455-.165-.62.11-.66.11-.04 0-.07.1-.07.1s.505-2.119-.97-2.119c-.919 0-2.199 1.01-2.829 1.924-.395.215-1.249.68-2.149 1.175l-1.035.57c-.025-.025-.045-.05-.07-.075-1.789-1.91-5.093-3.259-4.953-5.824.05-.934.375-3.389 6.353-6.368 4.899-2.439 8.817-1.769 9.492-.28.97 2.125-2.094 6.079-7.183 6.648-1.939.215-2.959-.535-3.214-.814-.265-.295-.305-.31-.405-.255-.165.09-.06.35 0 .505.15.394.775 1.094 1.84 1.444.934.305 3.209.475 5.958-.59 3.089-1.189 5.494-4.504 4.789-7.278-.72-2.819-5.394-3.744-9.817-2.174-2.635.935-5.484 2.404-7.533 4.319C.261 11.361-.129 13.345.031 14.175c.57 2.944 4.629 4.864 6.254 6.284l-.225.125c-.815.404-3.909 2.024-4.684 3.734-.875 1.939.145 3.329.815 3.519 2.089.579 4.228-.465 5.378-2.18 1.15-1.714 1.01-3.954.48-4.974-.005-.014-.015-.024-.02-.04.21-.124.425-.249.64-.374.415-.245.82-.47 1.175-.665-.2.54-.345 1.189-.42 2.129-.09 1.1.365 2.525.954 3.084.26.245.575.25.77.25.69 0 1-.57 1.345-1.249.425-.83.8-1.795.8-1.795s-.47 2.609.814 2.609c.47 0 .94-.604 1.15-.914v.005s.01-.02.035-.06c.05-.075.075-.12.075-.12v-.015c.19-.325.605-1.07 1.229-2.3.81-1.589 1.585-3.574 1.585-3.574s.07.485.31 1.29c.14.475.435.995.67 1.5-.19.259-.305.409-.305.409s0 .005.005.01c-.15.2-.32.415-.495.625-.64.76-1.4 1.63-1.5 1.88-.12.295-.09.515.14.685.17.13.47.15.785.125.575-.04.98-.18 1.175-.27.31-.11.67-.285 1.01-.53.624-.46 1.004-1.12.969-1.99-.02-.479-.175-.959-.365-1.409.055-.08.115-.165.17-.25a26.61 26.61 0 001.755-3.029s.07.484.31 1.289c.12.405.355.85.57 1.285-.93.755-1.505 1.63-1.705 2.204-.37 1.065-.08 1.545.465 1.655.245.05.595-.065.855-.175a3.95 3.95 0 001.079-.555c.625-.46 1.23-1.105 1.19-1.979-.015-.395-.125-.79-.27-1.17.785-.33 1.805-.51 3.104-.36 2.785.325 3.329 2.064 3.224 2.789-.104.73-.689 1.13-.884 1.25-.195.12-.255.165-.24.255.025.13.115.125.28.095.23-.04 1.459-.59 1.514-1.935.08-1.699-1.554-3.569-4.448-3.554zM6.09 25.027c-.92 1.005-2.21 1.385-2.765 1.065-.594-.345-.359-1.824.775-2.894.69-.65 1.58-1.25 2.17-1.62.135-.08.33-.2.57-.345l.059-.035c.045-.03.095-.055.145-.085.415 1.52.015 2.86-.954 3.914zm6.718-4.568c-.32.784-.995 2.784-1.405 2.679-.35-.09-.565-1.615-.07-3.114.25-.755.78-1.655 1.095-2.005.505-.565 1.06-.745 1.19-.52.174.295-.61 2.47-.81 2.96zm5.548 2.649c-.135.07-.26.115-.32.08-.045-.025.055-.12.055-.12s.695-.745.97-1.085c.16-.2.345-.435.545-.695 0 .025.005.05.005.08-.005.895-.865 1.5-1.255 1.74zm4.279-.975c-.1-.07-.085-.305.25-1.035.13-.285.43-.764.95-1.224.06.19.095.369.095.539-.005 1.125-.81 1.545-1.295 1.72z" fill="#cf649a" fill-rule="nonzero" /></symbol><symbol viewBox="0 0 32 32" fill-rule="evenodd" stroke-linejoin="round" stroke-miterlimit="2" id="typescript--sprite"><path id="typescript--sprite_typescript" d="M0 0v32h32V0H0zm25.788 14.726a3.986 3.986 0 012.001 1.153c.295.314.732.888.767 1.025.01.04-1.381.975-2.225 1.499-.03.02-.152-.112-.29-.315-.411-.6-.843-.859-1.503-.904-.97-.066-1.6.442-1.59 1.29 0 .249.035.396.137.6.213.442.61.706 1.854 1.245 2.291.985 3.271 1.635 3.88 2.56.68 1.031.833 2.677.371 3.901-.508 1.331-1.768 2.235-3.54 2.535-.549.096-1.849.081-2.438-.025-1.285-.229-2.504-.864-3.256-1.697-.295-.325-.869-1.173-.833-1.235.015-.02.147-.101.295-.188l1.188-.685.92-.533.193.285c.269.411.859.975 1.214 1.163 1.021.538 2.423.462 3.114-.158.295-.269.416-.548.416-.96 0-.371-.045-.533-.238-.812-.249-.355-.757-.655-2.2-1.28-1.651-.711-2.362-1.153-3.012-1.854a4.223 4.223 0 01-.879-1.6c-.122-.452-.153-1.585-.056-2.042.34-1.6 1.544-2.707 3.281-3.037.564-.107 1.875-.066 2.428.071l.001-.002zm-7.513 1.334l.01 1.31h-4.164v11.835h-2.946V17.37H7.01v-1.285l.035-1.319c.015-.02 2.55-.03 5.623-.025l5.592.015.015 1.304z" fill="#007acc" fill-rule="nonzero" /></symbol><symbol viewBox="0 0 32 32" fill-rule="evenodd" stroke-linejoin="round" stroke-miterlimit="2" id="vscode--sprite"><g id="vscode--sprite_vscode"><path d="M30.868 3.462L24.279.29a1.992 1.992 0 00-2.273.386L.435 20.344c-.58.529-.58 1.442.001 1.971l1.762 1.601c.475.432 1.19.464 1.702.076L29.877 4.286C30.748 3.624 32 4.246 32 5.34v-.077a2 2 0 00-1.132-1.801z" fill="#0065a9" fill-rule="nonzero" /><path d="M30.868 28.538l-6.589 3.172a1.992 1.992 0 01-2.273-.386L.435 11.656a1.333 1.333 0 01.001-1.971l1.762-1.601A1.333 1.333 0 013.9 8.008l25.977 19.706c.871.662 2.123.04 2.123-1.054v.077a2 2 0 01-1.132 1.801z" fill="#007acc" fill-rule="nonzero" /><path d="M24.279 31.711a1.992 1.992 0 01-2.273-.387c.738.738 1.999.215 1.999-.828V1.504c0-1.043-1.261-1.566-1.999-.828a1.992 1.992 0 012.273-.387l6.588 3.168A2 2 0 0132 5.259v21.482a2 2 0 01-1.133 1.802l-6.588 3.168z" fill="#1f9cf0" fill-rule="nonzero" /><path d="M22.678 31.772a1.989 1.989 0 001.586-.061l6.585-3.168a2 2 0 001.132-1.802V5.259a2 2 0 00-1.132-1.802L24.264.289a1.992 1.992 0 00-2.271.387l-12.605 11.5-5.49-4.168a1.331 1.331 0 00-1.701.076L.436 9.685a1.334 1.334 0 00-.002 1.971L5.196 16 .434 20.344a1.334 1.334 0 00.002 1.971l1.761 1.601a1.331 1.331 0 001.701.076l5.49-4.168 12.605 11.5c.199.2.433.35.685.448zM23.99 8.74L14.426 16l9.564 7.26V8.74z" fill="url(#vscode--sprite__Linear1)" opacity=".25" /></g><defs></defs></symbol><linearGradient id="vscode--sprite__Linear1" x1="0" y1="0" x2="1" y2="0" gradientUnits="userSpaceOnUse" gradientTransform="rotate(90 7.949 8.041) scale(31.8156)"><stop offset="0" stop-color="#fff" /><stop offset="1" stop-color="#fff" stop-opacity="0" /></linearGradient><symbol viewBox="0 0 32 32" fill-rule="evenodd" stroke-linejoin="round" stroke-miterlimit="2" id="webpack--sprite"><g id="webpack--sprite_webpack" fill-rule="nonzero"><path d="M16 .092l14.06 7.953v15.91L16 31.908 1.94 23.955V8.045L16 .092z" fill="#fff" /><path d="M27.55 23.406l-11.085 6.271v-4.883l6.907-3.8 4.178 2.412zm.759-.686V9.607l-4.054 2.344v8.429l4.054 2.34zm-23.902.686l11.084 6.271v-4.883l-6.91-3.8-4.174 2.412zm-.76-.686V9.607l4.055 2.344v8.429l-4.055 2.34zm.476-13.963l11.368-6.43v4.719l-7.284 4.007-.058.033-4.026-2.329zm23.71 0l-11.368-6.43v4.719l7.285 4.004.058.033 4.025-2.326z" fill="#8ed6fb" /><path d="M15.491 23.682l-6.815-3.749V12.51l6.815 3.935v7.237zm.974 0l6.816-3.745V12.51l-6.816 3.935v7.237zM9.137 11.653l6.841-3.76 6.841 3.76-6.841 3.949-6.841-3.949z" fill="#1c78c0" /></g></symbol></defs><use id="blender--sprite-usage" xlink:href="#blender--sprite" class="sprite-symbol-usage" /><use id="css--sprite-usage" xlink:href="#css--sprite" class="sprite-symbol-usage" /><use id="designer--sprite-usage" xlink:href="#designer--sprite" class="sprite-symbol-usage" /><use id="docker--sprite-usage" xlink:href="#docker--sprite" class="sprite-symbol-usage" /><use id="email--sprite-usage" xlink:href="#email--sprite" class="sprite-symbol-usage" /><use id="git--sprite-usage" xlink:href="#git--sprite" class="sprite-symbol-usage" /><use id="github--sprite-usage" xlink:href="#github--sprite" class="sprite-symbol-usage" /><use id="html--sprite-usage" xlink:href="#html--sprite" class="sprite-symbol-usage" /><use id="javascript--sprite-usage" xlink:href="#javascript--sprite" class="sprite-symbol-usage" /><use id="less--sprite-usage" xlink:href="#less--sprite" class="sprite-symbol-usage" /><use id="linkedin-circle--sprite-usage" xlink:href="#linkedin-circle--sprite" class="sprite-symbol-usage" /><use id="linkedin-square--sprite-usage" xlink:href="#linkedin-square--sprite" class="sprite-symbol-usage" /><use id="next--sprite-usage" xlink:href="#next--sprite" class="sprite-symbol-usage" /><use id="node--sprite-usage" xlink:href="#node--sprite" class="sprite-symbol-usage" /><use id="photo--sprite-usage" xlink:href="#photo--sprite" class="sprite-symbol-usage" /><use id="react--sprite-usage" xlink:href="#react--sprite" class="sprite-symbol-usage" /><use id="redux--sprite-usage" xlink:href="#redux--sprite" class="sprite-symbol-usage" /><use id="sass--sprite-usage" xlink:href="#sass--sprite" class="sprite-symbol-usage" /><use id="typescript--sprite-usage" xlink:href="#typescript--sprite" class="sprite-symbol-usage" /><use id="vscode--sprite-usage" xlink:href="#vscode--sprite" class="sprite-symbol-usage" /><use id="webpack--sprite-usage" xlink:href="#webpack--sprite" class="sprite-symbol-usage" /></svg>