<?xml version="1.0" encoding="UTF-8" standalone="no"?><!DOCTYPE svg PUBLIC "-//W3C//DTD SVG 1.1//EN" "http://www.w3.org/Graphics/SVG/1.1/DTD/svg11.dtd">
<svg width="100%" height="100%" viewBox="0 0 33 33" version="1.1" 
  xmlns="http://www.w3.org/2000/svg" 
  xmlns:xlink="http://www.w3.org/1999/xlink" xml:space="preserve" 
  style="fill-rule:evenodd;clip-rule:evenodd;stroke-linejoin:round;stroke-miterlimit:2;">
  <path id="Email" d="M16.497,0.232c8.831,0 16,7.17 16,16c0,8.831 -7.169,16 -16,16c-8.83,0 -16,-7.169 -16,-16c0,-8.83 7.17,-16 16,-16Zm12.718,23.497l0,-14.993l-25.435,0l0,14.993l25.435,0Zm-12.718,-5.1l10.99,-8.549l0.384,0l0,12.305l-22.747,0l0,-12.305l0.383,0l10.99,8.549Zm0,-1.703l-8.801,-6.846l17.603,0l-8.802,6.846Z" style="fill:#fff;"/>
</svg>