<?xml version="1.0" encoding="UTF-8" standalone="no"?><!DOCTYPE svg PUBLIC "-//W3C//DTD SVG 1.1//EN" "http://www.w3.org/Graphics/SVG/1.1/DTD/svg11.dtd">
<svg width="100%" height="100%" viewBox="0 0 78 98" version="1.1" 
  xmlns="http://www.w3.org/2000/svg" 
  xmlns:xlink="http://www.w3.org/1999/xlink" xml:space="preserve" 
  style="fill-rule:evenodd;clip-rule:evenodd;stroke-linejoin:round;stroke-miterlimit:2;">
  <path d="M50.219,67.076l0,2.604c-0.015,8.396 -2.976,17.03 -9.599,22.422c-5.403,4.398 -12.791,6.205 -19.7,4.835c-7.804,-1.548 -14.608,-7.165 -17.852,-14.699c-1.693,-3.931 -2.445,-8.236 -2.461,-12.538l14.113,-0.053c0.002,0.516 0.019,1.03 0.056,1.543c0.021,0.296 0.048,0.591 0.082,0.886c0.439,3.812 2.114,7.69 5.575,9.77c3.882,2.334 9.351,1.761 12.504,-1.883c2.371,-2.74 3.155,-6.597 3.168,-10.227l0.001,-0.069l0,-50.46l14.113,0l0,14.49c2.036,-1.912 4.276,-3.607 6.706,-5.02c5.404,-3.143 11.689,-4.757 17.923,-4.795c0.105,0 0.21,0 0.315,0c0.718,0.003 1.437,0.025 2.155,0.064l0.075,0.005l-0.81,14.09c-5.8,-0.334 -11.588,1.443 -16.081,5.372c-5.591,4.888 -8.958,12.054 -9.993,19.304c-0.204,1.427 -0.29,4.359 -0.29,4.359l0,0Zm-2.944,-52.114l-8.225,0l-4.113,-7.122l4.113,-7.123l8.225,0l4.112,7.123l-4.112,7.122Z" style="fill:#333;"/>
</svg>